<?xml version="1.0" encoding="UTF-8"?>
<svg id="Capa_2" data-name="Capa 2" xmlns="http://www.w3.org/2000/svg" viewBox="0 0 491.39 113.26">
  <defs>
    <style>
      .cls-1 {
        fill: #b10658;
      }

      .cls-2 {
        fill: #753087;
      }

      .cls-3 {
        fill: #aea299;
      }

      .cls-4 {
        fill: #dc026b;
      }

      .cls-5 {
        fill: #066a91;
      }

      .cls-6 {
        fill: #08aa90;
      }

      .cls-7 {
        fill: #ed7625;
      }
    </style>
  </defs>
  <g id="Capa_1-2" data-name="Capa 1">
    <g>
      <path class="cls-3" d="M35.51,99.63c0,1.7-2.6,2.55-6.06,2.55-8.66,0-14.72-5.11-14.72-17.88,0-14.48,7.79-18.74,18.19-18.74,4.33,0,7.79,0,12.99,1.71v-11.92c-4.33-.85-8.66-.85-12.99-.85C14.72,54.5,0,63.87,0,84.31s14.72,28.95,30.31,28.95c6.06,0,12.99-.85,18.19-3.41v-26.4h-12.99v16.18Z"/>
      <path class="cls-3" d="M73.62,99.63v-12.77h20.79v-9.37h-20.79v-10.21c0-.85.86-1.71,1.73-1.71,10.39,0,15.59,0,21.65.86v-11.07h-36.38v56.21h37.24v-10.22h-22.52c-.87,0-1.73-.85-1.73-1.7"/>
      <path class="cls-3" d="M144.64,86.86q0,.85-.87.85h0l-21.65-32.36h-12.99v56.21h11.26v-36.62c5.19,6.81,18.19,27.25,24.25,36.62h12.13v-56.21h-12.13v31.51Z"/>
      <path class="cls-3" d="M164.56,67.28c4.33-.85,10.39-.85,15.59-.85.86,0,1.73.85,1.73,1.7v43.43h12.99v-43.43c0-.85.87-1.7,1.73-1.7,6.06,0,12.13,0,16.46.85v-11.92h-48.5v11.92Z"/>
      <path class="cls-3" d="M232.98,99.63v-12.77h20.79v-9.37h-20.79v-10.21c0-.85.87-1.71,1.73-1.71,10.39,0,15.59,0,21.65.86v-11.07h-36.37v56.21h37.24v-10.22h-22.52c-.87,0-1.73-.85-1.73-1.7"/>
      <path class="cls-3" d="M330.85,87.71c1.72-4.26,3.45-10.22,6.05-16.18,2.6,5.96,4.33,11.07,6.08,16.18h-12.13ZM285.81,81.75h-4.33v-14.47c0-1.71.87-2.56,5.2-2.56s8.66,2.56,8.66,7.67c0,5.96-3.48,9.36-9.53,9.36M343.83,55.35h-12.98c-2.6,9.37-12.13,31.51-19.06,49.39l-13-17.88c6.93-2.56,11.28-8.52,11.28-15.33,0-11.92-10.4-17.03-21.66-17.03-8.66,0-11.26.85-20.78.85v56.21h13.86v-20.44h2.6c1.74,0,2.6.85,4.33,3.41l13.86,17.03h19.06c1.72-4.26,3.45-8.52,5.21-13.63h20.78c1.72,5.11,2.6,9.37,4.33,13.63h13.86l-21.66-56.21Z"/>
      <path class="cls-7" d="M479.81,9.37c3.48,0,6.05-.85,8.65-.85,2.6,15.33,3.48,27.25,2.6,37.47-10.37.85-22.51,2.55-34.64,5.96-7.8,2.55-15.58,5.11-23.38,8.51.87-1.7.87-3.41.87-5.96,1.73-11.92,3.45-22.99,5.17-33.21,12.13-6.82,25.99-11.07,40.72-11.92"/>
      <path class="cls-6" d="M433.92,54.5c1.73-11.92,3.45-22.99,5.17-33.21-27.71,13.63-47.62,39.17-54.54,68.98,13.86-10.22,30.31-21.29,48.5-29.81.87-1.7.87-3.41.87-5.96"/>
      <path class="cls-2" d="M421.79,7.66c6.05-2.56,13.86-5.11,22.51-7.66-2.6,5.96-3.45,13.62-5.2,21.29-27.71,13.63-47.62,39.17-54.54,68.98h0v-2.56c-4.33-16.18-6.08-29.8-4.33-40.02,2.6-17.88,13.86-28.95,41.57-40.02h0"/>
      <path class="cls-4" d="M485.01,60.46h3.45c-4.33,11.92-11.25,21.29-24.23,30.66-10.4,7.66-19.93,12.77-28.58,16.18,2.6-24.7,22.51-44.28,49.37-46.84"/>
      <path class="cls-5" d="M384.55,90.27h0c4.33,14.48,15.58,22.14,32.04,21.29,7.81-15.33,13.86-33.21,16.46-51.1-18.18,8.52-34.64,19.59-48.5,29.81"/>
      <path class="cls-1" d="M491.06,45.99c-.84,5.11-1.72,10.22-2.6,14.47h-3.45c-26.86,2.55-46.77,22.14-49.37,46.84-6.93,2.56-13.86,4.26-19.06,4.26,7.81-15.33,13.86-33.21,16.46-51.1,7.8-3.41,15.58-5.96,23.38-8.51,12.13-3.41,24.26-5.11,34.64-5.96"/>
    </g>
  </g>
</svg>