<?xml version="1.0" encoding="UTF-8"?>
<svg id="Capa_2" data-name="Capa 2" xmlns="http://www.w3.org/2000/svg" viewBox="0 0 750.42 165.79">
  <defs>
    <style>
      .cls-1 {
        fill: #5c5c60;
      }

      .cls-2 {
        fill: #53565b;
      }

      .cls-3 {
        fill: #469fde;
      }
    </style>
  </defs>
  <g id="Capa_1-2" data-name="Capa 1">
    <g>
      <g>
        <path class="cls-1" d="M190.4,145.33c0,4.06-1.06,7.13-3.19,9.21-2.13,2.08-5.26,3.12-9.38,3.12h-5.79v-24.19h6.54c3.86,0,6.8,1.01,8.81,3.03,2.01,2.02,3.02,4.96,3.02,8.84ZM188.56,145.39c0-3.46-.88-6.07-2.64-7.82-1.76-1.75-4.34-2.62-7.75-2.62h-4.45v21.21h4c7.22,0,10.84-3.59,10.84-10.77Z"/>
        <path class="cls-1" d="M210.42,148.64c0,2.93-.71,5.23-2.14,6.88-1.42,1.65-3.39,2.47-5.89,2.47-1.58,0-2.97-.38-4.17-1.14-1.2-.76-2.12-1.85-2.76-3.28-.64-1.42-.96-3.07-.96-4.93,0-2.93.71-5.22,2.13-6.86,1.42-1.64,3.38-2.46,5.86-2.46s4.41.83,5.82,2.49c1.41,1.66,2.11,3.94,2.11,6.83ZM196.22,148.64c0,2.47.54,4.4,1.63,5.78,1.09,1.38,2.62,2.08,4.61,2.08s3.52-.69,4.61-2.08c1.09-1.38,1.63-3.31,1.63-5.78s-.55-4.41-1.65-5.77c-1.1-1.37-2.64-2.05-4.62-2.05s-3.52.68-4.59,2.04c-1.08,1.36-1.61,3.29-1.61,5.78Z"/>
        <path class="cls-1" d="M227.94,157.65v-11.67c0-1.81-.38-3.12-1.14-3.95-.76-.82-1.94-1.23-3.54-1.23-2.15,0-3.73.54-4.73,1.63-1,1.09-1.5,2.85-1.5,5.29v9.93h-1.64v-17.99h1.39l.32,2.47h.1c1.17-1.88,3.25-2.81,6.24-2.81,4.08,0,6.12,2.19,6.12,6.57v11.76h-1.62Z"/>
        <path class="cls-1" d="M241.97,139.32c1.3,0,2.43.24,3.38.71.95.47,1.8,1.28,2.55,2.43h.1c-.07-1.39-.1-2.75-.1-4.09v-6.47h1.62v25.75h-1.07l-.41-2.75h-.13c-1.37,2.05-3.33,3.08-5.89,3.08s-4.38-.77-5.69-2.32c-1.31-1.54-1.97-3.79-1.97-6.75,0-3.11.65-5.49,1.95-7.13,1.3-1.64,3.19-2.47,5.67-2.47ZM241.97,140.81c-1.96,0-3.44.69-4.43,2.07s-1.48,3.38-1.48,6.01c0,5.1,1.98,7.64,5.94,7.64,2.03,0,3.52-.59,4.47-1.77.95-1.18,1.42-3.13,1.42-5.84v-.28c0-2.78-.47-4.78-1.4-6-.93-1.22-2.44-1.83-4.53-1.83Z"/>
        <path class="cls-1" d="M262.82,157.98c-2.61,0-4.65-.81-6.11-2.42-1.46-1.61-2.19-3.87-2.19-6.77s.71-5.17,2.12-6.89c1.41-1.73,3.32-2.59,5.71-2.59,2.12,0,3.79.74,5.01,2.22s1.84,3.49,1.84,6.02v1.32h-12.96c.02,2.47.6,4.36,1.73,5.66,1.13,1.3,2.75,1.95,4.86,1.95,1.03,0,1.93-.07,2.71-.22.78-.14,1.76-.45,2.95-.93v1.49c-1.01.44-1.95.74-2.81.9-.86.16-1.81.24-2.85.24ZM262.34,140.78c-1.73,0-3.12.57-4.17,1.71-1.05,1.14-1.66,2.79-1.84,4.94h11.12c0-2.08-.45-3.72-1.36-4.89-.9-1.18-2.16-1.76-3.76-1.76Z"/>
        <path class="cls-1" d="M294.11,152.97c0,1.61-.61,2.85-1.84,3.71-1.22.87-2.96,1.3-5.21,1.3-2.41,0-4.31-.37-5.73-1.11v-1.77c1.81.9,3.72,1.36,5.73,1.36,1.78,0,3.12-.29,4.05-.88.92-.59,1.38-1.38,1.38-2.36,0-.9-.37-1.67-1.1-2.28-.73-.62-1.94-1.22-3.62-1.82-1.8-.65-3.06-1.21-3.79-1.68-.73-.47-1.28-1-1.65-1.59-.37-.59-.56-1.31-.56-2.16,0-1.35.57-2.41,1.7-3.19,1.13-.78,2.71-1.17,4.74-1.17s3.78.36,5.53,1.09l-.61,1.49c-1.76-.73-3.4-1.09-4.91-1.09s-2.63.24-3.49.73c-.86.49-1.29,1.16-1.29,2.02,0,.94.33,1.69,1,2.25.67.56,1.97,1.19,3.91,1.89,1.62.58,2.8,1.11,3.54,1.58.74.47,1.29,1,1.66,1.6.37.6.55,1.3.55,2.1Z"/>
        <path class="cls-1" d="M298.51,134.67c0-1.06.35-1.59,1.04-1.59.34,0,.61.14.8.41.19.28.29.67.29,1.17s-.1.89-.29,1.17c-.19.29-.46.43-.8.43-.69,0-1.04-.54-1.04-1.61ZM300.38,157.65h-1.64v-17.99h1.64v17.99Z"/>
        <path class="cls-1" d="M313.67,157.98c-2.61,0-4.65-.81-6.12-2.42-1.46-1.61-2.19-3.87-2.19-6.77s.71-5.17,2.12-6.89c1.41-1.73,3.32-2.59,5.71-2.59,2.12,0,3.79.74,5.01,2.22,1.22,1.48,1.84,3.49,1.84,6.02v1.32h-12.96c.02,2.47.6,4.36,1.73,5.66,1.13,1.3,2.75,1.95,4.86,1.95,1.03,0,1.93-.07,2.71-.22.78-.14,1.76-.45,2.95-.93v1.49c-1.02.44-1.95.74-2.81.9-.86.16-1.81.24-2.85.24ZM313.19,140.78c-1.73,0-3.12.57-4.17,1.71-1.05,1.14-1.66,2.79-1.84,4.94h11.12c0-2.08-.45-3.72-1.36-4.89-.91-1.18-2.16-1.76-3.76-1.76Z"/>
        <path class="cls-1" d="M347.47,157.65v-11.8c0-1.75-.34-3.03-1.03-3.84-.68-.81-1.73-1.21-3.14-1.21-1.84,0-3.2.51-4.09,1.52-.88,1.02-1.32,2.61-1.32,4.78v10.54h-1.67v-12.29c0-3.03-1.39-4.55-4.17-4.55-1.89,0-3.26.55-4.12,1.65-.86,1.1-1.29,2.85-1.29,5.27v9.93h-1.64v-17.99h1.36l.35,2.47h.1c.5-.89,1.2-1.59,2.12-2.08.92-.49,1.93-.74,3.03-.74,2.84,0,4.66,1.06,5.46,3.19h.07c.59-1.03,1.37-1.81,2.36-2.37s2.11-.83,3.37-.83c1.96,0,3.44.52,4.42,1.57.98,1.05,1.47,2.71,1.47,5v11.76h-1.62Z"/>
        <path class="cls-1" d="M362.61,157.98c-2.77,0-4.79-1.04-6.06-3.11h-.12l.05,1.39c.04.82.07,1.71.07,2.68v6.85h-1.64v-26.13h1.39l.32,2.56h.1c1.23-1.94,3.21-2.91,5.92-2.91,2.43,0,4.28.8,5.55,2.39,1.27,1.59,1.91,3.91,1.91,6.96s-.67,5.25-2.01,6.88c-1.34,1.63-3.17,2.44-5.48,2.44ZM362.58,156.53c1.84,0,3.27-.68,4.28-2.05,1.01-1.37,1.52-3.28,1.52-5.74,0-5.28-1.91-7.93-5.73-7.93-2.1,0-3.63.58-4.62,1.73-.98,1.15-1.47,3.03-1.47,5.63v.53c0,2.81.47,4.82,1.41,6.02.94,1.2,2.48,1.8,4.61,1.8Z"/>
        <path class="cls-1" d="M382.17,139.32c.76,0,1.58.08,2.45.23l-.32,1.57c-.75-.19-1.53-.28-2.33-.28-1.53,0-2.79.65-3.77,1.95-.98,1.3-1.47,2.95-1.47,4.93v9.93h-1.64v-17.99h1.39l.17,3.24h.12c.74-1.32,1.53-2.25,2.37-2.79.84-.54,1.85-.8,3.04-.8Z"/>
        <path class="cls-1" d="M395.54,157.98c-2.61,0-4.65-.81-6.12-2.42-1.46-1.61-2.19-3.87-2.19-6.77s.71-5.17,2.12-6.89c1.41-1.73,3.32-2.59,5.71-2.59,2.12,0,3.79.74,5.01,2.22,1.22,1.48,1.84,3.49,1.84,6.02v1.32h-12.96c.02,2.47.6,4.36,1.73,5.66,1.13,1.3,2.75,1.95,4.86,1.95,1.03,0,1.93-.07,2.71-.22.78-.14,1.76-.45,2.95-.93v1.49c-1.02.44-1.95.74-2.81.9-.86.16-1.81.24-2.85.24ZM395.06,140.78c-1.73,0-3.12.57-4.17,1.71-1.05,1.14-1.66,2.79-1.84,4.94h11.12c0-2.08-.45-3.72-1.36-4.89-.91-1.18-2.16-1.76-3.76-1.76Z"/>
        <path class="cls-1" d="M422.94,157.98c-2.61,0-4.65-.81-6.12-2.42-1.46-1.61-2.19-3.87-2.19-6.77s.71-5.17,2.12-6.89c1.41-1.73,3.32-2.59,5.71-2.59,2.12,0,3.79.74,5.01,2.22,1.22,1.48,1.84,3.49,1.84,6.02v1.32h-12.96c.02,2.47.6,4.36,1.73,5.66,1.13,1.3,2.75,1.95,4.86,1.95,1.03,0,1.93-.07,2.71-.22.78-.14,1.76-.45,2.95-.93v1.49c-1.02.44-1.95.74-2.81.9-.86.16-1.81.24-2.85.24ZM422.46,140.78c-1.73,0-3.12.57-4.17,1.71-1.05,1.14-1.66,2.79-1.84,4.94h11.12c0-2.08-.45-3.72-1.36-4.89-.91-1.18-2.16-1.76-3.76-1.76Z"/>
        <path class="cls-1" d="M446.82,157.65v-11.67c0-1.81-.38-3.12-1.14-3.95-.76-.82-1.94-1.23-3.54-1.23-2.15,0-3.73.54-4.73,1.63-1,1.09-1.5,2.85-1.5,5.29v9.93h-1.64v-17.99h1.39l.32,2.47h.1c1.17-1.88,3.25-2.81,6.24-2.81,4.08,0,6.12,2.19,6.12,6.57v11.76h-1.62Z"/>
        <path class="cls-1" d="M461.45,157.98c-2.57,0-4.58-.81-6.04-2.43-1.46-1.62-2.18-3.88-2.18-6.78s.76-5.3,2.27-6.96c1.51-1.66,3.58-2.49,6.21-2.49,1.56,0,3.04.27,4.47.81l-.45,1.46c-1.56-.52-2.91-.78-4.05-.78-2.21,0-3.88.68-5.01,2.04-1.14,1.36-1.7,3.32-1.7,5.88,0,2.43.57,4.33,1.7,5.7,1.14,1.37,2.73,2.06,4.77,2.06,1.63,0,3.15-.29,4.55-.88v1.52c-1.15.56-2.65.84-4.52.84Z"/>
        <path class="cls-1" d="M471.79,139.67v11.65c0,1.81.38,3.12,1.14,3.95.76.82,1.94,1.23,3.54,1.23,2.14,0,3.72-.54,4.73-1.62,1.01-1.08,1.51-2.84,1.51-5.28v-9.93h1.62v17.99h-1.39l-.3-2.48h-.1c-1.17,1.88-3.25,2.81-6.24,2.81-4.09,0-6.14-2.19-6.14-6.57v-11.75h1.62Z"/>
        <path class="cls-1" d="M497.62,157.98c-2.61,0-4.65-.81-6.11-2.42-1.46-1.61-2.19-3.87-2.19-6.77s.71-5.17,2.12-6.89c1.41-1.73,3.32-2.59,5.71-2.59,2.12,0,3.79.74,5.01,2.22,1.22,1.48,1.84,3.49,1.84,6.02v1.32h-12.96c.02,2.47.6,4.36,1.73,5.66,1.13,1.3,2.75,1.95,4.86,1.95,1.03,0,1.93-.07,2.71-.22.78-.14,1.76-.45,2.95-.93v1.49c-1.01.44-1.95.74-2.81.9-.86.16-1.81.24-2.85.24ZM497.14,140.78c-1.73,0-3.12.57-4.17,1.71-1.05,1.14-1.66,2.79-1.84,4.94h11.12c0-2.08-.45-3.72-1.36-4.89-.9-1.18-2.16-1.76-3.76-1.76Z"/>
        <path class="cls-1" d="M521.49,157.65v-11.67c0-1.81-.38-3.12-1.14-3.95-.76-.82-1.94-1.23-3.54-1.23-2.15,0-3.73.54-4.72,1.63-1,1.09-1.5,2.85-1.5,5.29v9.93h-1.64v-17.99h1.39l.31,2.47h.1c1.17-1.88,3.25-2.81,6.24-2.81,4.08,0,6.12,2.19,6.12,6.57v11.76h-1.62Z"/>
        <path class="cls-1" d="M533.69,156.53c1.04,0,1.94-.09,2.71-.26v1.32c-.79.26-1.71.4-2.75.4-1.59,0-2.76-.42-3.52-1.27-.76-.85-1.13-2.18-1.13-4v-11.62h-2.66v-.96l2.66-.74.83-4.07h.84v4.35h5.28v1.42h-5.28v11.38c0,1.38.24,2.4.73,3.06.49.66,1.25.99,2.28.99Z"/>
        <path class="cls-1" d="M547.37,139.32c.76,0,1.58.08,2.45.23l-.32,1.57c-.75-.19-1.53-.28-2.33-.28-1.53,0-2.79.65-3.77,1.95-.98,1.3-1.47,2.95-1.47,4.93v9.93h-1.64v-17.99h1.39l.17,3.24h.12c.74-1.32,1.53-2.25,2.37-2.79.84-.54,1.85-.8,3.04-.8Z"/>
        <path class="cls-1" d="M564.4,157.65l-.41-2.85h-.13c-.91,1.16-1.83,1.98-2.79,2.46-.95.48-2.08.72-3.38.72-1.76,0-3.14-.45-4.12-1.36-.98-.9-1.47-2.16-1.47-3.76,0-1.75.73-3.12,2.19-4.09s3.58-1.48,6.35-1.54l3.43-.1v-1.19c0-1.71-.35-3-1.04-3.87-.69-.87-1.81-1.31-3.36-1.31-1.67,0-3.39.46-5.18,1.39l-.61-1.42c1.97-.93,3.93-1.39,5.86-1.39s3.45.51,4.43,1.54c.98,1.03,1.46,2.63,1.46,4.8v11.96h-1.21ZM557.78,156.5c1.92,0,3.43-.55,4.54-1.65,1.11-1.1,1.66-2.62,1.66-4.58v-1.77l-3.14.13c-2.53.12-4.33.52-5.4,1.18-1.08.67-1.61,1.71-1.61,3.12,0,1.13.34,2,1.03,2.62.69.62,1.66.94,2.92.94Z"/>
        <path class="cls-1" d="M582.58,152.97c0,1.61-.61,2.85-1.84,3.71-1.22.87-2.96,1.3-5.21,1.3-2.41,0-4.31-.37-5.73-1.11v-1.77c1.81.9,3.72,1.36,5.73,1.36,1.78,0,3.12-.29,4.05-.88.92-.59,1.38-1.38,1.38-2.36,0-.9-.37-1.67-1.1-2.28-.73-.62-1.94-1.22-3.62-1.82-1.8-.65-3.06-1.21-3.79-1.68-.73-.47-1.28-1-1.65-1.59-.37-.59-.56-1.31-.56-2.16,0-1.35.57-2.41,1.7-3.19,1.13-.78,2.71-1.17,4.74-1.17s3.78.36,5.53,1.09l-.61,1.49c-1.76-.73-3.4-1.09-4.91-1.09s-2.63.24-3.49.73-1.29,1.16-1.29,2.02c0,.94.33,1.69,1,2.25.67.56,1.97,1.19,3.91,1.89,1.62.58,2.8,1.11,3.54,1.58.74.47,1.29,1,1.66,1.6.37.6.55,1.3.55,2.1Z"/>
        <path class="cls-1" d="M600.77,156.53c1.04,0,1.94-.09,2.71-.26v1.32c-.79.26-1.71.4-2.75.4-1.59,0-2.76-.42-3.52-1.27-.76-.85-1.13-2.18-1.13-4v-11.62h-2.66v-.96l2.66-.74.83-4.07h.84v4.35h5.28v1.42h-5.28v11.38c0,1.38.24,2.4.73,3.06.49.66,1.25.99,2.28.99Z"/>
        <path class="cls-1" d="M614.45,139.32c.76,0,1.58.08,2.45.23l-.32,1.57c-.75-.19-1.53-.28-2.33-.28-1.53,0-2.79.65-3.77,1.95-.98,1.3-1.47,2.95-1.47,4.93v9.93h-1.64v-17.99h1.39l.17,3.24h.12c.74-1.32,1.53-2.25,2.37-2.79.84-.54,1.85-.8,3.04-.8Z"/>
        <path class="cls-1" d="M631.48,157.65l-.41-2.85h-.13c-.91,1.16-1.83,1.98-2.79,2.46-.95.48-2.08.72-3.38.72-1.76,0-3.14-.45-4.12-1.36-.98-.9-1.47-2.16-1.47-3.76,0-1.75.73-3.12,2.19-4.09,1.46-.97,3.58-1.48,6.35-1.54l3.43-.1v-1.19c0-1.71-.35-3-1.04-3.87-.69-.87-1.81-1.31-3.36-1.31-1.67,0-3.39.46-5.18,1.39l-.61-1.42c1.97-.93,3.93-1.39,5.86-1.39s3.45.51,4.43,1.54c.98,1.03,1.46,2.63,1.46,4.8v11.96h-1.21ZM624.86,156.5c1.92,0,3.43-.55,4.54-1.65,1.11-1.1,1.66-2.62,1.66-4.58v-1.77l-3.14.13c-2.53.12-4.33.52-5.4,1.18-1.08.67-1.61,1.71-1.61,3.12,0,1.13.34,2,1.03,2.62.69.62,1.66.94,2.92.94Z"/>
        <path class="cls-1" d="M646.11,139.32c2.52,0,4.41.79,5.68,2.37,1.27,1.58,1.91,3.9,1.91,6.94s-.67,5.29-2.01,6.92c-1.34,1.62-3.22,2.43-5.65,2.43-1.28,0-2.43-.26-3.46-.79-1.03-.53-1.84-1.28-2.43-2.25h-.15l-.46,2.71h-1.03v-25.75h1.64v6.47c0,.97-.02,1.86-.07,2.68l-.05,1.41h.12c.68-1.08,1.51-1.88,2.47-2.38.96-.51,2.13-.76,3.48-.76ZM646.07,140.81c-2.12,0-3.63.61-4.55,1.82-.92,1.21-1.37,3.22-1.37,6.01v.28c0,2.71.48,4.66,1.43,5.84.95,1.18,2.44,1.77,4.46,1.77s3.44-.69,4.43-2.06c.99-1.37,1.49-3.33,1.49-5.87,0-5.2-1.96-7.79-5.89-7.79Z"/>
        <path class="cls-1" d="M669.6,157.65l-.41-2.85h-.13c-.91,1.16-1.83,1.98-2.79,2.46-.95.48-2.08.72-3.38.72-1.76,0-3.14-.45-4.12-1.36-.98-.9-1.47-2.16-1.47-3.76,0-1.75.73-3.12,2.19-4.09,1.46-.97,3.58-1.48,6.35-1.54l3.43-.1v-1.19c0-1.71-.35-3-1.04-3.87s-1.81-1.31-3.36-1.31c-1.67,0-3.39.46-5.18,1.39l-.61-1.42c1.97-.93,3.93-1.39,5.86-1.39s3.45.51,4.43,1.54c.98,1.03,1.46,2.63,1.46,4.8v11.96h-1.21ZM662.98,156.5c1.92,0,3.43-.55,4.54-1.65,1.11-1.1,1.66-2.62,1.66-4.58v-1.77l-3.14.13c-2.53.12-4.33.52-5.4,1.18-1.08.67-1.61,1.71-1.61,3.12,0,1.13.34,2,1.03,2.62.69.62,1.66.94,2.92.94Z"/>
        <path class="cls-1" d="M674.23,165.79c-.88,0-1.63-.14-2.23-.41v-1.42c.76.22,1.47.33,2.13.33,1.67,0,2.5-.97,2.5-2.91v-21.71h1.64v21.48c0,1.49-.35,2.64-1.05,3.44-.7.81-1.7,1.21-2.99,1.21ZM676.4,134.67c0-1.06.35-1.59,1.04-1.59.34,0,.61.14.8.41.19.28.29.67.29,1.17s-.1.89-.29,1.17c-.19.29-.46.43-.8.43-.69,0-1.04-.54-1.04-1.61Z"/>
        <path class="cls-1" d="M699.17,148.64c0,2.93-.71,5.23-2.14,6.88-1.42,1.65-3.39,2.47-5.89,2.47-1.58,0-2.97-.38-4.17-1.14-1.2-.76-2.12-1.85-2.76-3.28-.64-1.42-.96-3.07-.96-4.93,0-2.93.71-5.22,2.13-6.86,1.42-1.64,3.38-2.46,5.86-2.46s4.41.83,5.82,2.49c1.41,1.66,2.11,3.94,2.11,6.83ZM684.97,148.64c0,2.47.54,4.4,1.63,5.78,1.09,1.38,2.62,2.08,4.61,2.08s3.52-.69,4.61-2.08c1.09-1.38,1.63-3.31,1.63-5.78s-.55-4.41-1.65-5.77c-1.1-1.37-2.64-2.05-4.62-2.05s-3.52.68-4.59,2.04c-1.08,1.36-1.61,3.29-1.61,5.78Z"/>
      </g>
      <g>
        <g>
          <path class="cls-3" d="M140.36,85.16c0-15,7.3-22.66,20.75-22.66s20.83,7.67,20.83,22.66v1.45c0,15-7.38,22.75-20.83,22.75s-20.75-7.75-20.75-22.75v-1.45ZM171.61,85.24c0-9.71-3.53-14.91-10.5-14.91s-10.5,5.2-10.5,14.83v1.36c0,9.54,3.44,15,10.5,15s10.5-5.54,10.5-15v-1.28Z"/>
          <path class="cls-3" d="M220.82,68.03c-.33,2.04-.57,2.81-2.38,2.73-2.71-.26-4.1-.43-7.22-.43-8.53,0-12.55,4.86-12.55,15v1.28c0,10.31,4.18,14.91,12.88,14.91,2.79,0,5.25-.26,7.22-.51,1.39-.09,1.97.68,2.21,2.81l.16,1.45c.25,2.04-.49,2.9-2.54,3.24-4.67.68-7.79.85-9.51.85-14.02,0-20.67-7.24-20.67-23.17v-.94c0-15.34,6.97-22.75,20.5-22.75,3.77,0,6.48.26,9.68.85,1.72.34,2.87.94,2.46,3.24l-.25,1.45Z"/>
          <path class="cls-3" d="M257.73,68.03c-.33,2.04-.57,2.81-2.38,2.73-2.71-.26-4.1-.43-7.22-.43-8.53,0-12.55,4.86-12.55,15v1.28c0,10.31,4.18,14.91,12.88,14.91,2.79,0,5.25-.26,7.22-.51,1.39-.09,1.97.68,2.21,2.81l.16,1.45c.25,2.04-.49,2.9-2.54,3.24-4.68.68-7.79.85-9.51.85-14.02,0-20.67-7.24-20.67-23.17v-.94c0-15.34,6.97-22.75,20.5-22.75,3.77,0,6.48.26,9.68.85,1.72.34,2.87.94,2.46,3.24l-.25,1.45Z"/>
          <path class="cls-2" d="M328.43,105.01c0,2.47-1.07,3.49-3.36,3.49h-3.12c-2.3,0-3.28-1.02-3.28-3.49v-24.2c0-6.05-2.46-9.97-8.28-9.97-2.79,0-6.73,1.53-8.53,2.81v31.35c0,2.47-1.07,3.49-3.36,3.49h-3.12c-2.3,0-3.36-1.02-3.36-3.49v-27.86c-.25-3.83-2.79-6.3-8.2-6.3-2.79,0-6.81,1.11-8.61,2.05v32.12c0,2.47-.98,3.49-3.28,3.49h-3.12c-2.3,0-3.36-1.02-3.36-3.49v-34.17c0-2.39.98-4.09,3.28-4.86,3.61-1.7,9.51-3.49,15.99-3.49,5.33,0,9.35,1.11,12.14,3.15,4.43-1.87,9.76-3.15,14.44-3.15,11.97,0,17.14,6.82,17.14,17.38v25.13Z"/>
          <path class="cls-2" d="M337.53,66.84c0-2.47,1.07-3.49,3.36-3.49h3.04c2.38,0,3.36,1.02,3.36,3.49v24.96c0,5.62,2.71,9.2,8.78,9.2,3.03,0,7.14-.68,9.02-1.36v-32.8c0-2.47.98-3.49,3.28-3.49h3.12c2.3,0,3.36,1.02,3.36,3.49v36.04c0,2.39-1.31,3.83-3.28,4.26-2.3.85-10.33,2.22-15.99,2.22-12.79,0-18.04-6.3-18.04-16.53v-25.99Z"/>
          <path class="cls-2" d="M421.76,105.01c0,2.47-.98,3.49-3.28,3.49h-3.12c-2.3,0-3.36-1.02-3.36-3.49v-24.54c0-5.88-2.54-9.63-8.53-9.63-3.2,0-7.71,1.11-9.68,2.05v32.12c0,2.47-.98,3.49-3.28,3.49h-3.12c-2.3,0-3.36-1.02-3.36-3.49v-34.17c0-2.39,1.15-3.92,3.28-4.94,3.44-1.7,10.17-3.41,17.06-3.41,12.22,0,17.39,6.48,17.39,16.53v25.99Z"/>
          <path class="cls-2" d="M459.08,65.13v-16.02c0-2.47,1.07-3.49,3.36-3.49h3.03c2.38,0,3.36,1.02,3.36,3.49v54.36c0,2.39-.33,3.58-3.36,4.09-1.89.51-8.69,1.7-14.43,1.7-12.71,0-21.32-5.54-21.32-22.66v-1.11c0-14.57,5.74-23,18.37-23,3.94,0,7.87.94,10.99,2.64ZM439.97,86.52c0,10.39,3.94,15,11.48,15,2.71,0,6.15-.68,7.63-1.19v-27.35c-2.46-1.45-5.41-2.13-8.2-2.13-7.55,0-10.91,5.28-10.91,14.74v.94Z"/>
          <path class="cls-2" d="M481.4,57.46c-2.38,0-3.36-1.11-3.36-3.49v-3.92c0-2.47.98-3.49,3.36-3.49h3.61c2.38,0,3.36,1.02,3.36,3.49v3.92c0,2.39-.98,3.49-3.36,3.49h-3.61ZM494.6,103.47c.33,2.3,0,3.75-2.13,4.34-1.56.51-2.95.68-4.68.68-5.82,0-9.51-2.22-9.51-12.1v-29.56c0-2.47.98-3.49,3.36-3.49h3.04c2.38,0,3.36,1.02,3.36,3.49v29.48c0,3.15.66,4.35,2.62,4.35.66,0,1.48-.26,2.05-.34.9-.17,1.48.68,1.72,2.64l.16.51Z"/>
          <path class="cls-2" d="M525.28,83.37v-5.88c0-4.26-1.89-7.16-9.76-7.16-4.59,0-8.94.77-10.83,1.11-2.71.51-3.12-.6-3.53-2.73l-.16-.85c-.57-2.9.08-3.41,2.71-4,3.61-.85,10.33-1.36,14.43-1.36,12.79,0,16.9,4.34,16.9,15v25.48c0,2.73-.49,3.49-3.28,4.26-2.13.77-7.63,2.13-14.52,2.13-10.5,0-19.36-3.07-19.36-13.46v-1.53c0-8.35,5.91-12.95,16.16-12.95,4.02,0,7.54.68,11.24,1.96ZM508.13,95.38c0,4.94,3.53,7.07,9.76,7.07,3.53,0,6.15-.77,7.38-1.11v-11.25c-1.48-.94-4.76-1.79-8.28-1.79-5.99,0-8.86,2.39-8.86,6.56v.51Z"/>
          <path class="cls-2" d="M560.79,104.41c.16,2.47-.41,2.98-2.46,3.41-1.39.43-3.12.68-4.84.68-5.82,0-9.19-2.81-9.19-12.1v-47.88c0-2.47.98-3.49,3.28-3.49h3.12c2.3,0,3.36,1.02,3.36,3.49v47.8c0,3.15.66,4.35,2.62,4.35.57,0,1.72-.34,2.13-.34,1.31-.09,1.8,1.11,1.89,2.73l.08,1.36Z"/>
          <path class="cls-2" d="M571.99,108.5c-2.38,0-3.36-1.02-3.36-3.49v-4.86c0-2.39.98-3.41,3.36-3.41h3.61c2.38,0,3.36,1.02,3.36,3.41v4.86c0,2.47-.99,3.49-3.36,3.49h-3.61Z"/>
          <path class="cls-2" d="M618.82,68.03c-.33,2.04-.57,2.81-2.38,2.73-2.71-.26-4.1-.43-7.22-.43-8.53,0-12.55,4.86-12.55,15v1.28c0,10.31,4.18,14.91,12.88,14.91,2.79,0,5.25-.26,7.22-.51,1.39-.09,1.97.68,2.21,2.81l.16,1.45c.25,2.04-.49,2.9-2.54,3.24-4.67.68-7.79.85-9.51.85-14.02,0-20.67-7.24-20.67-23.17v-.94c0-15.34,6.97-22.75,20.5-22.75,3.77,0,6.48.26,9.68.85,1.72.34,2.87.94,2.46,3.24l-.25,1.45Z"/>
          <path class="cls-2" d="M623.33,85.16c0-15,7.3-22.66,20.75-22.66s20.83,7.67,20.83,22.66v1.45c0,15-7.38,22.75-20.83,22.75s-20.75-7.75-20.75-22.75v-1.45ZM654.58,85.24c0-9.71-3.53-14.91-10.5-14.91s-10.5,5.2-10.5,14.83v1.36c0,9.54,3.44,15,10.5,15s10.5-5.54,10.5-15v-1.28Z"/>
          <path class="cls-2" d="M735.69,105.01c0,2.47-1.07,3.49-3.36,3.49h-3.12c-2.3,0-3.28-1.02-3.28-3.49v-24.2c0-6.05-2.46-9.97-8.28-9.97-2.79,0-6.73,1.53-8.53,2.81v31.35c0,2.47-1.07,3.49-3.36,3.49h-3.12c-2.3,0-3.36-1.02-3.36-3.49v-27.86c-.25-3.83-2.79-6.3-8.2-6.3-2.79,0-6.81,1.11-8.61,2.05v32.12c0,2.47-.98,3.49-3.28,3.49h-3.12c-2.3,0-3.36-1.02-3.36-3.49v-34.17c0-2.39.98-4.09,3.28-4.86,3.61-1.7,9.51-3.49,15.99-3.49,5.33,0,9.35,1.11,12.14,3.15,4.43-1.87,9.76-3.15,14.44-3.15,11.97,0,17.14,6.82,17.14,17.38v25.13Z"/>
        </g>
        <path class="cls-1" d="M750.42,66.99c0,3.28-2.48,5.87-5.72,5.87s-5.74-2.58-5.74-5.87,2.56-5.8,5.74-5.8,5.72,2.58,5.72,5.8ZM740.38,66.99c0,2.58,1.84,4.63,4.36,4.63s4.25-2.05,4.25-4.59-1.8-4.66-4.29-4.66-4.32,2.08-4.32,4.63ZM743.83,70.03h-1.3v-5.8c.51-.1,1.23-.18,2.14-.18,1.06,0,1.53.18,1.94.43.31.25.55.7.55,1.27,0,.64-.48,1.13-1.15,1.35v.07c.54.22.85.64,1.02,1.41.17.88.27,1.23.41,1.45h-1.4c-.17-.22-.27-.74-.44-1.42-.11-.64-.44-.92-1.16-.92h-.61v2.34ZM743.86,66.74h.6c.72,0,1.3-.25,1.3-.85,0-.53-.38-.88-1.19-.88-.34,0-.57.03-.71.07v1.66Z"/>
        <g>
          <g>
            <path class="cls-3" d="M108.87,46.75c-7.78-14-20.36-24.02-35.43-28.21-15.07-4.2-30.79-2.05-44.26,6.03C15.7,32.65,6.06,45.72,2.02,61.38c-4.04,15.65-1.98,31.98,5.8,45.98,7.78,14,20.36,24.02,35.43,28.21,5.04,1.4,10.15,2.1,15.23,2.1,10.1,0,20.06-2.75,29.03-8.12,13.47-8.08,23.12-21.15,27.16-36.81,4.04-15.65,1.98-31.98-5.8-45.98ZM82.74,120.95c-11.27,6.76-24.42,8.55-37.02,5.04-12.6-3.51-23.13-11.89-29.63-23.59-6.51-11.71-8.23-25.36-4.85-38.46,3.38-13.09,11.44-24.03,22.71-30.78,7.67-4.6,16.04-6.78,24.31-6.78,16.88,0,33.31,9.09,42.34,25.33,13.45,24.21,5.44,55.27-17.86,69.24Z"/>
            <path class="cls-3" d="M51.65,64.65c2.72-1.63,5.94-2.24,9.04-1.7,4.72.81,9.44-1,12.31-4.74l.7-.9-.43-.34c-8.33-6.65-19.78-6.98-28.47-.85-10.18,7.19-13.54,21.16-7.82,32.5,3.1,6.14,8.33,10.58,14.74,12.51,2.26.68,4.55,1.02,6.83,1.02,4.19,0,8.32-1.14,12.06-3.38,8.63-5.17,13.29-15.15,11.87-25.42l-.12-.54-.53.08c-4.77.75-8.83,4.24-10.61,9.1-1.31,3.6-3.92,6.43-7.34,7.98-5.76,2.61-12.65.69-16.37-4.57-2.35-3.31-3.2-7.34-2.39-11.35.8-3.95,3.18-7.38,6.53-9.39Z"/>
            <path class="cls-3" d="M99.54,70.09l-.53.08c-4.92.77-8.69,4.89-9.17,10.02-1.06,11.36-7.53,21.22-17.32,26.36-6.98,3.67-15.03,4.5-22.65,2.35-7.63-2.16-14.16-7.11-18.39-13.94-4.76-7.68-6.24-16.8-4.17-25.68,2.07-8.88,7.4-16.28,14.99-20.84,8.8-5.28,19.61-5.84,28.92-1.51,4.53,2.11,9.86.76,12.96-3.28l.33-.43-.42-.34c-14.03-11.44-33.54-12.41-48.54-2.42-8.7,5.79-14.99,14.74-17.73,25.19-2.74,10.45-1.67,21.47,3,31.04,5.26,10.78,14.3,18.61,25.44,22.05,3.99,1.23,8.04,1.84,12.06,1.84,7.23,0,14.36-1.97,20.82-5.84,14.97-8.98,23.01-26.29,20.47-44.09l-.08-.55Z"/>
          </g>
          <path class="cls-2" d="M154.76,23.63l-12.76,5.77-1.08-1.94-.33-.59-1.08-1.94,11.19-8.6,1.66-16.34s-10.73,6.44-14.91,8.94c-3.41,2.04-4.01,12.7-4.11,16.55-7.42.28-19.27,3.74-29.92,10.13-14.77,8.86-26.03,17.81-23.78,25.92l-21.6,15.19,23.42-11.81c5.55,6.31,18.75.65,33.64-8.28,10.63-6.37,19.31-15.48,23.26-22.02,3.2,1.8,12.5,6.68,15.93,4.62,4.18-2.5,14.91-8.94,14.91-8.94l-14.45-6.67Z"/>
        </g>
      </g>
    </g>
  </g>
</svg>