<?xml version="1.0" encoding="UTF-8" standalone="no"?>
<svg
   viewBox="0 0 1629.3399 719.99999"
   height="720"
   width="1629.34"
   xml:space="preserve"
   id="svg2"
   version="1.1"
   sodipodi:docname="compartamos-banco.svg"
   inkscape:version="1.1 (c68e22c387, 2021-05-23)"
   xmlns:inkscape="http://www.inkscape.org/namespaces/inkscape"
   xmlns:sodipodi="http://sodipodi.sourceforge.net/DTD/sodipodi-0.dtd"
   xmlns="http://www.w3.org/2000/svg"
   xmlns:svg="http://www.w3.org/2000/svg"
   xmlns:rdf="http://www.w3.org/1999/02/22-rdf-syntax-ns#"
   xmlns:cc="http://creativecommons.org/ns#"
   xmlns:dc="http://purl.org/dc/elements/1.1/"><sodipodi:namedview
     id="namedview30"
     pagecolor="#ffffff"
     bordercolor="#666666"
     borderopacity="1.0"
     inkscape:pageshadow="2"
     inkscape:pageopacity="0.0"
     inkscape:pagecheckerboard="0"
     showgrid="false"
     fit-margin-top="0"
     fit-margin-left="0"
     fit-margin-right="0"
     fit-margin-bottom="0"
     inkscape:zoom="10.001175"
     inkscape:cx="64.342437"
     inkscape:cy="11.648631"
     inkscape:window-width="1920"
     inkscape:window-height="1017"
     inkscape:window-x="1912"
     inkscape:window-y="-8"
     inkscape:window-maximized="1"
     inkscape:current-layer="svg2" /><metadata
     id="metadata8"><rdf:RDF><cc:Work
         rdf:about=""><dc:format>image/svg+xml</dc:format><dc:type
           rdf:resource="http://purl.org/dc/dcmitype/StillImage" /></cc:Work></rdf:RDF></metadata><defs
     id="defs6" /><g
     transform="matrix(25.198382,0,0,-25.198382,-268.05787,880.73821)"
     id="g10"><g
       transform="scale(0.1)"
       id="g12"><path
         id="path16"
         style="fill:#f7961c;fill-opacity:1;fill-rule:nonzero;stroke:none"
         d="m 425.539,305.285 c -2.777,-0.519 -17.293,4.125 -17.293,4.125 0,0 10.41,-7.64 11.262,-9.027 0.855,-1.379 -3.129,-13.11 -3.129,-13.11 0,0 7.652,8.848 10.555,11.497 1.738,1.589 5.793,0.82 7.75,0.355 1.949,-0.465 21.199,-5.738 40.402,5.707 12.547,7.488 12.488,9.117 12.488,9.117 0,0 -10.508,8.531 -27.605,6.574 -17.133,-1.972 -31.653,-14.73 -34.43,-15.238" /><path
         id="path18"
         style="fill:#8d104b;fill-opacity:1;fill-rule:nonzero;stroke:none"
         d="m 307.879,84.0625 c -3.348,-0.9258 -20.899,-0.6836 -20.899,-0.6836 0,0 12.301,-5.5508 13.29,-6.7305 0.968,-1.1601 -4.145,-12.8593 -4.145,-12.8593 0,0 8.199,8.457 11.758,11.4179 2.152,1.793 6.805,2.3477 10.578,2.6524 2.34,0.1992 25.301,-2.0625 48.723,11.7656 15.293,9.0273 15.269,10.57 15.269,10.57 0,0 -15.004,8.055 -35.637,3.493 -20.613,-4.5552 -35.582,-18.6919 -38.937,-19.6255" /><path
         id="path20"
         style="fill:#f7961c;fill-opacity:1;fill-rule:nonzero;stroke:none"
         d="m 649.352,299.727 c -4.664,-0.903 -28.602,1.402 -28.602,1.402 0,0 16.168,-8.949 17.375,-10.676 1.203,-1.683 -7.102,-17.09 -7.102,-17.09 0,0 12.145,10.621 17.34,14.266 3.141,2.207 9.551,2.43 14.731,2.426 3.234,0.004 34.312,-5.668 67.851,10.57 21.899,10.621 22.039,12.723 22.039,12.723 0,0 -19.574,12.687 -48.269,8.793 -28.649,-3.918 -50.684,-21.528 -55.363,-22.414" /><path
         id="path22"
         style="fill:#f7961c;fill-opacity:1;fill-rule:nonzero;stroke:none"
         d="m 137.02,120.996 c -4.891,-0.996 -30.641,6.774 -30.641,6.774 0,0 18.609,-13.176 20.156,-15.59 1.524,-2.41 -5.152,-23.223 -5.152,-23.223 0,0 13.254,15.828 18.297,20.574 3.043,2.879 10.222,1.633 13.66,0.852 3.457,-0.766 37.59,-9.528 71.172,11.238 21.914,13.547 21.777,16.445 21.777,16.445 0,0 -18.769,14.77 -48.926,10.809 -30.164,-3.961 -55.433,-26.887 -60.343,-27.879" /><path
         id="path24"
         style="fill:#8d104b;fill-opacity:1;fill-rule:nonzero;stroke:none"
         d="m 584.285,333.324 c -3.07,-0.578 -18.176,4.211 -18.176,4.211 0,0 10.758,-7.64 11.262,-9.117 0.59,-1.633 -4.137,-12.656 -4.137,-12.656 0,0 8.907,8.722 12.231,11.359 2.008,1.578 6.418,0.977 8.535,0.594 2.133,-0.383 23.5,-4.875 45.176,6.828 13.012,7.027 13.84,9.102 13.84,9.102 0,0 -11.067,7.847 -30.024,5.406 -18.922,-2.434 -35.609,-15.125 -38.707,-15.727" /><path
         id="path26"
         style="fill:#d80f60;fill-opacity:1;fill-rule:nonzero;stroke:none"
         d="m 528.164,103.449 c 0,-15.4099 -14.578,-24.7459 -31.398,-24.7459 -9.246,0 -12.496,0.8164 -20.078,0.8164 l 12.492,78.6645 c 8.281,0 10.613,1.046 18.55,1.046 14.719,0 21.7,-7.687 21.7,-17.269 0,-8.863 -7.703,-17.156 -17.739,-19.488 9.114,-1.985 16.473,-10.375 16.473,-19.024 m -8.758,-0.234 c 0,7.578 -5.48,15.191 -22.402,15.191 -2.121,0 -4.43,-0.125 -7.016,-0.371 l -4.675,-29.4022 c -0.36,-2.2187 2.917,-3.1836 11.8,-3.1836 12.274,0 22.293,6.8047 22.293,17.7658 m 1.524,37.812 c 0,6.657 -4.785,11.688 -14.598,11.688 -8.285,0 -10.394,-0.942 -10.848,-3.274 -1.765,-8.769 -3.504,-19.16 -4.429,-24.636 h 4.429 c 18.547,0.468 25.446,7.125 25.446,16.222" /><path
         id="path28"
         style="fill:#d80f60;fill-opacity:1;fill-rule:nonzero;stroke:none"
         d="m 571.121,79.5195 c -0.93,3.7344 -0.93,7.0118 -0.578,10.8399 -3.852,-5.5821 -9.918,-11.9961 -18.813,-11.9961 -10.015,0 -15.277,8.2656 -15.277,18.1953 0,16.4644 12.957,37.9294 31.399,37.9294 7.601,0 7.953,-1.867 15.652,-1.867 -4.07,-19.723 -6.656,-38.746 -6.656,-47.0351 0,-3.3906 0.218,-4.9218 0.465,-6.0664 z m -3.609,48.7895 c -12.617,0 -23.231,-15.75 -23.231,-31.0434 0,-6.7773 3.157,-12.4023 8.742,-12.4023 10.036,0 17.52,12.7422 19.641,25.1167 l 2.324,13.547 c 0.34,2.676 -1.289,4.782 -7.476,4.782" /><path
         id="path30"
         style="fill:#d80f60;fill-opacity:1;fill-rule:nonzero;stroke:none"
         d="m 601.305,121.535 -6.657,-42.0037 h -6.988 l 8.289,52.0427 c 10.278,0 12.848,2.922 20.91,2.922 8.403,0 16.09,-3.617 16.09,-13.664 0,-1.266 -0.105,-2.797 -0.363,-4.312 l -5.809,-36.9887 h -7.011 l 5.601,35.2347 c 0.231,1.402 0.34,2.683 0.34,3.851 0,6.77 -2.898,9.692 -10.613,9.692 -7.828,0 -13.305,-3.735 -13.789,-6.774" /><path
         id="path32"
         style="fill:#d80f60;fill-opacity:1;fill-rule:nonzero;stroke:none"
         d="m 669.34,128.195 c -13.168,0 -22.289,-11.203 -22.289,-28.8317 0,-10.7305 5.953,-15.2813 14.844,-15.2813 4.062,0 6.757,0.336 9.554,1.0391 l -0.926,-6.2031 c -3.035,-0.6875 -5.953,-1.0274 -8.628,-1.0274 -13.907,0 -22.684,7.1133 -22.684,21.3672 0,19.5902 12.742,35.2342 31.312,35.2342 2.68,0 5.848,-0.215 8.602,-0.699 l -1.039,-6.883 c -2.883,0.922 -5.957,1.285 -8.746,1.285" /><path
         id="path34"
         style="fill:#d80f60;fill-opacity:1;fill-rule:nonzero;stroke:none"
         d="m 725.652,113.836 c 0,-18.5587 -10.742,-35.9571 -27.324,-35.9571 -12.254,0 -17.851,7.4649 -17.851,20.6641 0,18.672 10.964,35.949 27.296,35.949 12.278,0 17.879,-7.59 17.879,-20.656 M 688.059,99.0117 c 0,-10.3711 3.757,-15.0547 11.211,-15.0547 10.503,0 18.789,12.9532 18.789,29.18 0,10.511 -3.375,15.172 -10.957,15.172 -10.75,0 -19.043,-13.079 -19.043,-29.2973" /><path
         id="path36"
         style="fill:#d80f60;fill-opacity:1;fill-rule:nonzero;stroke:none"
         d="m 177.539,190.703 c -4.922,-2.34 -10.769,-3.515 -16.367,-3.515 -21.602,0 -40.195,11.449 -40.195,40.757 0,29.36 19.168,41.633 40.777,41.633 5.113,0 11.105,-0.703 15.785,-2.105 v -13.684 c -4.769,2 -10.066,3.164 -15.863,3.164 -15.199,0 -26.09,-7.707 -26.09,-28.64 0,-21.243 11.797,-28.411 26.168,-28.411 6.078,0 10.863,0.969 15.785,3.059 v -12.258" /><path
         id="path38"
         style="fill:#d80f60;fill-opacity:1;fill-rule:nonzero;stroke:none"
         d="m 197.063,216.395 c 0,-11.805 5.109,-17.629 11.558,-17.629 6.301,0 11.098,5.363 11.098,17.629 0,11.691 -5.141,17.523 -11.715,17.523 -6.262,0 -10.941,-5.258 -10.941,-17.523 m 36.441,0 c 0,-17.145 -9.934,-29.079 -25.258,-29.079 -15.051,0 -25.109,11.934 -25.109,29.079 0,17.406 10.058,28.855 25.109,28.855 15.324,0 25.258,-11.449 25.258,-28.855" /><path
         id="path40"
         style="fill:#d80f60;fill-opacity:1;fill-rule:nonzero;stroke:none"
         d="m 313.738,188.941 h -12.879 v 34.942 c 0,7.226 -2.785,9.902 -8.621,9.902 -3.41,0 -8.422,-1.379 -8.422,-4.058 0.11,-1.282 0.36,-2.918 0.36,-4.692 v -36.094 h -12.867 v 34.942 c 0,7.347 -2.934,9.902 -7.922,9.902 -4.317,0 -8.66,-1.137 -8.66,-5.125 v -39.719 h -12.86 v 53.516 c 11.344,0 14.977,2.574 23.371,2.574 7.571,0 10.617,-1.765 13.43,-4.226 4.215,2.711 9.578,4.226 16.457,4.226 11.125,0 18.613,-5.035 18.613,-19.398 v -36.692" /><path
         id="path42"
         style="fill:#d80f60;fill-opacity:1;fill-rule:nonzero;stroke:none"
         d="m 343.375,234.277 c -4.297,0 -7.047,-1.875 -7.047,-3.761 v -28.024 c 0,-1.984 3.078,-3.722 7.047,-3.722 8.141,0 12.836,5.359 12.836,17.523 0,12.508 -4.695,17.984 -12.836,17.984 m -20.211,-74.414 c 0.227,12.258 0.461,24.414 0.461,39.707 v 43.801 c 7.938,0 12.961,1.875 20.77,1.875 14.168,0 25.949,-10.152 25.949,-29.199 0,-18.34 -12.621,-28.391 -24.289,-28.391 -5.051,0 -7.95,1.172 -9.727,2.449 v -30.242 h -13.164" /><path
         id="path44"
         style="fill:#d80f60;fill-opacity:1;fill-rule:nonzero;stroke:none"
         d="m 405.211,215.449 c -10.617,-0.332 -16.106,-3.617 -16.106,-9.793 0,-4.211 3.278,-7.129 8.293,-7.129 4.672,0 6.887,1.286 7.364,2.918 0.34,1.754 0.449,7.004 0.449,14.004 m 0,9.586 v 2.113 c 0,4.426 -3.031,7.122 -8.508,7.122 -5.609,0 -11.234,-1.055 -17.055,-3.747 v 12.043 c 6.055,1.75 11.555,2.676 18.098,2.676 12.602,0 20.449,-5.129 20.449,-17.976 0,-8.996 -0.359,-16.84 -0.359,-25.465 0,-4.563 0.23,-9.598 0.586,-12.496 -9.367,0 -14.367,-1.52 -22.317,-1.52 -13.535,0 -20.304,6.289 -20.304,16.922 0,10.852 8.875,19.746 29.41,20.328" /><path
         id="path46"
         style="fill:#d80f60;fill-opacity:1;fill-rule:nonzero;stroke:none"
         d="m 428.156,188.941 v 54.7 h 12.16 v -5.153 c 3.266,5.153 8.758,6.887 14.125,6.887 2.344,0 4.18,-0.23 5.961,-0.48 v -13.54 c -2.211,1.051 -5.742,1.512 -8.992,1.512 -5.25,0 -9.914,-2.105 -10.183,-6.66 -0.219,-9.219 -0.219,-23.336 -0.219,-37.266 h -12.852" /><path
         id="path48"
         style="fill:#d80f60;fill-opacity:1;fill-rule:nonzero;stroke:none"
         d="m 478.574,243.641 h 15.762 v -11.239 h -15.762 c 0,-11.562 -0.129,-19.515 -0.129,-28.047 0,-4.07 2.453,-5.707 6.789,-5.707 3.493,0 6.297,0.59 9.102,2.09 v -11.312 c -3.867,-1.41 -7.836,-2.11 -12.512,-2.11 -9.324,0 -16.226,4.313 -16.226,14.485 v 51.754 l 12.976,7.707 v -17.621" /><path
         id="path50"
         style="fill:#d80f60;fill-opacity:1;fill-rule:nonzero;stroke:none"
         d="m 530.441,215.449 c -10.636,-0.332 -16.117,-3.617 -16.117,-9.793 0,-4.211 3.274,-7.129 8.293,-7.129 4.676,0 6.871,1.286 7.344,2.918 0.371,1.754 0.48,7.004 0.48,14.004 m 0,9.586 v 2.113 c 0,4.426 -3.046,7.122 -8.523,7.122 -5.609,0 -11.23,-1.055 -17.055,-3.747 v 12.043 c 6.063,1.75 11.524,2.676 18.09,2.676 12.613,0 20.442,-5.129 20.442,-17.976 0,-8.996 -0.348,-16.84 -0.348,-25.465 0,-4.563 0.226,-9.598 0.59,-12.496 -9.336,0 -14.379,-1.52 -22.328,-1.52 -13.536,0 -20.313,6.289 -20.313,16.922 0,10.852 8.883,19.746 29.445,20.328" /><path
         id="path52"
         style="fill:#d80f60;fill-opacity:1;fill-rule:nonzero;stroke:none"
         d="M 625.367,188.941 H 612.52 v 34.942 c 0,7.226 -2.813,9.902 -8.645,9.902 -3.387,0 -8.406,-1.379 -8.406,-4.058 0.094,-1.282 0.344,-2.918 0.344,-4.692 v -36.094 h -12.872 v 34.942 c 0,7.347 -2.933,9.902 -7.918,9.902 -4.308,0 -8.66,-1.137 -8.66,-5.125 v -39.719 h -12.836 v 53.516 c 11.328,0 14.957,2.574 23.348,2.574 7.598,0 10.641,-1.765 13.449,-4.226 4.215,2.711 9.574,4.226 16.465,4.226 11.094,0 18.578,-5.035 18.578,-19.398 v -36.692" /><path
         id="path54"
         style="fill:#d80f60;fill-opacity:1;fill-rule:nonzero;stroke:none"
         d="m 647.277,216.395 c 0,-11.805 5.157,-17.629 11.598,-17.629 6.297,0 11.066,5.363 11.066,17.629 0,11.691 -5.128,17.523 -11.648,17.523 -6.328,0 -11.016,-5.258 -11.016,-17.523 m 36.461,0 c 0,-17.145 -9.933,-29.079 -25.23,-29.079 -15.039,0 -25.117,11.934 -25.117,29.079 0,17.406 10.078,28.855 25.117,28.855 15.297,0 25.23,-11.449 25.23,-28.855" /><path
         id="path56"
         style="fill:#d80f60;fill-opacity:1;fill-rule:nonzero;stroke:none"
         d="m 710.457,245.25 c 4.332,0 7.949,-0.332 12.625,-1.617 v -12.164 c -5.488,2.203 -9.367,2.816 -13.09,2.816 -4.422,0 -7.219,-1.879 -7.219,-4.683 0,-8.422 22.875,-7.594 22.875,-24.426 0,-9.102 -6.546,-17.856 -21.718,-17.856 -4.809,0 -9.7,0.461 -14.25,1.856 v 11.449 c 4.433,-1.504 9.675,-2.23 13.433,-2.23 6.196,0 9.34,2.351 9.34,5.957 0,9.253 -23.015,7.836 -23.015,23.847 0,10.52 7.957,17.051 21.019,17.051" /></g></g></svg>
