<?xml version="1.0" encoding="UTF-8"?>
<svg id="Capa_2" data-name="Capa 2" xmlns="http://www.w3.org/2000/svg" viewBox="0 0 151.35 152.49">
  <defs>
    <style>
      .cls-1 {
        fill: #c10230;
      }

      .cls-2 {
        fill: #007934;
      }

      .cls-3 {
        fill: #8c9091;
      }

      .cls-4 {
        fill: #636569;
      }
    </style>
  </defs>
  <g id="Capa_1-2" data-name="Capa 1">
    <g>
      <g>
        <path class="cls-2" d="M29.32,123.15c-16.19,0-29.32-.34-29.32-.77s13.13-.77,29.32-.77h40.67v1.54H29.32Z"/>
        <path class="cls-1" d="M122,121.62c16.21,0,29.36.34,29.36.77s-13.14.77-29.36.77h-40.71v-1.54h40.71Z"/>
      </g>
      <g>
        <path class="cls-4" d="M6.13,144.8c0,2.43,0,4.33.13,5.39.08.73.23,1.29.99,1.39.35.05.91.1,1.27.1.33,0,.43.08.43.2,0,.18-.18.25-.56.25-1.59,0-3.19-.08-3.85-.08s-2.25.08-3.21.08c-.35,0-.53-.05-.53-.25,0-.13.1-.2.38-.2.38,0,.68-.05.91-.1.51-.1.63-.66.73-1.39.13-1.06.13-2.96.13-5.39v-4.45c0-3.85,0-4.56-.05-5.37-.05-.86-.25-1.27-1.09-1.44-.2-.05-.63-.08-.99-.08-.25,0-.43-.05-.43-.2,0-.2.2-.25.58-.25.66,0,1.39.03,2.05.03.66.03,1.24.05,1.59.05.96,0,6.1,0,6.68-.03.48-.03.78-.03,1.04-.1.15-.05.28-.15.41-.15.1,0,.18.1.18.23,0,.18-.13.48-.2,1.14-.03.25-.08,1.75-.13,2.05-.03.2-.08.35-.25.35s-.23-.13-.25-.4c0-.2,0-.61-.15-.96-.18-.35-.71-.73-1.67-.76l-3.9-.08c-.15,0-.23.08-.23.35v6.33c0,.15.03.23.18.23l3.24-.03c.43,0,.78,0,1.14-.03.48-.03.84-.13,1.09-.46.13-.15.18-.25.33-.25.1,0,.15.08.15.23s-.13.78-.2,1.57c-.05.51-.1,1.67-.1,1.85,0,.23,0,.48-.25.48-.15,0-.2-.18-.2-.35s-.05-.48-.15-.78c-.13-.35-.51-.81-1.29-.91-.63-.08-3.32-.08-3.75-.08-.13,0-.18.05-.18.23v2.05Z"/>
        <path class="cls-4" d="M16.76,142.57c0-4.33,2.86-9.92,10.45-9.92,6.3,0,10.22,3.67,10.22,9.47s-4.05,10.38-10.48,10.38c-7.26,0-10.2-5.44-10.2-9.92ZM33.89,143.05c0-5.67-3.26-9.19-7.42-9.19-2.91,0-6.23,1.62-6.23,7.92,0,5.26,2.91,9.44,7.77,9.44,1.77,0,5.87-.86,5.87-8.17Z"/>
        <path class="cls-4" d="M40.81,135.48c-.58-1.39-1.01-1.67-1.92-1.92-.38-.1-.78-.1-.99-.1-.23,0-.3-.08-.3-.23,0-.2.28-.23.66-.23,1.34,0,2.78.08,3.67.08.63,0,1.85-.08,3.11-.08.3,0,.58.05.58.23s-.15.23-.38.23c-.41,0-.78.03-.99.18-.18.13-.25.3-.25.53,0,.33.23,1.04.58,1.95l4.35,11.49h.1c1.09-2.78,4.38-10.93,4.99-12.6.13-.33.23-.71.23-.94,0-.2-.1-.4-.33-.48-.3-.1-.68-.13-1.01-.13-.23,0-.43-.03-.43-.2,0-.2.23-.25.71-.25,1.27,0,2.33.08,2.66.08.43,0,1.62-.08,2.38-.08.33,0,.53.05.53.23s-.15.23-.4.23-.78,0-1.24.3c-.33.23-.71.66-1.39,2.28-.99,2.38-1.67,3.75-3.04,6.86-1.62,3.69-2.81,6.45-3.37,7.72-.66,1.47-.81,1.87-1.16,1.87-.33,0-.48-.35-.96-1.54l-6.38-15.46Z"/>
        <path class="cls-4" d="M62.97,140.34c0-3.85,0-4.56-.05-5.37-.05-.86-.3-1.29-.86-1.42-.28-.08-.61-.1-.91-.1-.25,0-.4-.05-.4-.25,0-.15.2-.2.61-.2.96,0,2.56.08,3.29.08.63,0,2.13-.08,3.09-.08.33,0,.53.05.53.2,0,.2-.15.25-.41.25s-.46.03-.76.08c-.68.13-.89.56-.94,1.44-.05.81-.05,1.52-.05,5.37v4.45c0,2.46,0,4.45.1,5.54.08.68.25,1.14,1.01,1.24.35.05.91.1,1.29.1.28,0,.41.08.41.2,0,.18-.2.25-.48.25-1.67,0-3.26-.08-3.95-.08-.58,0-2.18.08-3.19.08-.33,0-.51-.08-.51-.25,0-.13.1-.2.41-.2.38,0,.68-.05.91-.1.51-.1.66-.53.73-1.27.13-1.06.13-3.06.13-5.52v-4.45Z"/>
        <path class="cls-4" d="M72.62,151.83c-.45-.18-.54-.3-.54-.86,0-1.39.11-2.91.14-3.32.03-.38.11-.66.34-.66.25,0,.28.23.28.43,0,.33.11.86.25,1.29.62,1.87,2.29,2.56,4.04,2.56,2.54,0,3.79-1.54,3.79-2.89,0-1.24-.42-2.4-2.77-4.05l-1.3-.91c-3.11-2.18-4.18-3.95-4.18-6,0-2.78,2.6-4.78,6.53-4.78,1.84,0,3.03.25,3.76.43.25.05.4.13.4.3,0,.33-.11,1.06-.11,3.04,0,.56-.08.76-.31.76-.2,0-.28-.15-.28-.46,0-.23-.14-1.01-.74-1.67-.42-.48-1.24-1.24-3.08-1.24-2.09,0-3.36,1.09-3.36,2.61,0,1.16.65,2.05,3,3.64l.79.53c3.42,2.3,4.64,4.05,4.64,6.45,0,1.47-.62,3.21-2.66,4.4-1.41.81-3,1.04-4.5,1.04-1.64,0-2.91-.18-4.13-.66Z"/>
        <path class="cls-4" d="M87.8,151.83c-.45-.18-.54-.3-.54-.86,0-1.39.11-2.91.14-3.32.03-.38.11-.66.34-.66.25,0,.28.23.28.43,0,.33.11.86.25,1.29.62,1.87,2.29,2.56,4.04,2.56,2.54,0,3.79-1.54,3.79-2.89,0-1.24-.42-2.4-2.77-4.05l-1.3-.91c-3.11-2.18-4.18-3.95-4.18-6,0-2.78,2.6-4.78,6.53-4.78,1.84,0,3.03.25,3.76.43.25.05.4.13.4.3,0,.33-.11,1.06-.11,3.04,0,.56-.08.76-.31.76-.2,0-.28-.15-.28-.46,0-.23-.14-1.01-.74-1.67-.42-.48-1.24-1.24-3.08-1.24-2.09,0-3.36,1.09-3.36,2.61,0,1.16.65,2.05,3,3.64l.79.53c3.42,2.3,4.64,4.05,4.64,6.45,0,1.47-.62,3.21-2.66,4.4-1.41.81-3,1.04-4.5,1.04-1.64,0-2.91-.18-4.13-.66Z"/>
        <path class="cls-4" d="M103.32,151.83c-.45-.18-.54-.3-.54-.86,0-1.39.11-2.91.14-3.32.03-.38.11-.66.34-.66.25,0,.28.23.28.43,0,.33.11.86.25,1.29.62,1.87,2.29,2.56,4.04,2.56,2.54,0,3.79-1.54,3.79-2.89,0-1.24-.42-2.4-2.77-4.05l-1.3-.91c-3.11-2.18-4.18-3.95-4.18-6,0-2.78,2.6-4.78,6.53-4.78,1.84,0,3.03.25,3.76.43.25.05.4.13.4.3,0,.33-.11,1.06-.11,3.04,0,.56-.08.76-.31.76-.2,0-.28-.15-.28-.46,0-.23-.14-1.01-.74-1.67-.42-.48-1.24-1.24-3.08-1.24-2.09,0-3.36,1.09-3.36,2.61,0,1.16.65,2.05,3,3.64l.79.53c3.42,2.3,4.64,4.05,4.64,6.45,0,1.47-.62,3.21-2.66,4.4-1.41.81-3,1.04-4.5,1.04-1.64,0-2.91-.18-4.13-.66Z"/>
        <path class="cls-4" d="M124.97,134.42l-3.77.1c-1.47.05-2.08.18-2.45.73-.25.38-.38.68-.43.89-.05.2-.13.3-.28.3-.18,0-.23-.13-.23-.4,0-.41.48-2.71.53-2.91.08-.33.15-.48.3-.48.2,0,.46.25,1.09.3.73.08,1.7.13,2.53.13h10.02c.81,0,1.37-.08,1.75-.13.38-.08.58-.13.68-.13.18,0,.2.15.2.53,0,.53-.08,2.28-.08,2.94-.03.25-.08.4-.23.4-.2,0-.25-.13-.28-.51l-.03-.28c-.05-.66-.73-1.37-2.99-1.42l-3.19-.08v10.38c0,2.33,0,4.33.13,5.42.08.71.23,1.27.99,1.37.35.05.91.1,1.29.1.28,0,.41.08.41.2,0,.18-.2.25-.48.25-1.67,0-3.26-.08-3.97-.08-.58,0-2.18.08-3.19.08-.33,0-.51-.08-.51-.25,0-.13.1-.2.41-.2.38,0,.68-.05.91-.1.51-.1.66-.66.73-1.39.13-1.06.13-3.06.13-5.39v-10.38Z"/>
        <path class="cls-4" d="M140.75,140.34c0-3.85,0-4.56-.05-5.37-.05-.86-.25-1.27-1.09-1.44-.2-.05-.63-.08-.99-.08-.28,0-.43-.05-.43-.23s.18-.23.56-.23c.68,0,1.42.03,2.05.03.66.03,1.24.05,1.59.05.81,0,5.85,0,6.33-.03.48-.05.89-.1,1.09-.15.13-.03.28-.1.41-.1s.15.1.15.23c0,.18-.13.48-.2,1.65-.03.25-.08,1.37-.13,1.67-.03.13-.08.28-.25.28s-.23-.13-.23-.35c0-.18-.03-.61-.15-.91-.18-.46-.43-.76-1.7-.91-.43-.05-3.09-.1-3.59-.1-.13,0-.18.08-.18.25v6.4c0,.18.03.28.18.28.56,0,3.47,0,4.05-.05.61-.05.99-.13,1.21-.38.18-.2.28-.33.41-.33.1,0,.18.05.18.2s-.1.56-.2,1.85c-.03.51-.1,1.52-.1,1.7,0,.2,0,.48-.23.48-.18,0-.23-.1-.23-.23-.03-.25-.03-.58-.1-.91-.13-.51-.48-.89-1.42-.99-.48-.05-2.99-.08-3.59-.08-.13,0-.15.1-.15.25v2c0,.86-.03,3.19,0,3.92.05,1.75.46,2.13,3.04,2.13.66,0,1.72,0,2.38-.3.66-.3.96-.84,1.14-1.87.05-.28.1-.38.28-.38.2,0,.2.2.2.46,0,.58-.2,2.3-.33,2.81-.18.66-.4.66-1.37.66-1.9,0-3.29-.05-4.38-.08-1.09-.05-1.87-.08-2.63-.08-.28,0-.84,0-1.44.03-.58,0-1.24.05-1.75.05-.33,0-.51-.08-.51-.25,0-.13.1-.2.41-.2.38,0,.68-.05.91-.1.51-.1.63-.66.73-1.39.13-1.06.13-3.06.13-5.39v-4.45Z"/>
      </g>
      <path class="cls-3" d="M75.63,70.59c.17-.14.32-.23.42-.36,3.85-5.17,8.99-8.66,14.74-11.35,2.47-1.15,5.01-2.17,7.57-3.1,1.82-.66,2.73-2.01,3.19-3.71.91-3.31,1.7-6.65,2.58-9.97.75-2.84,1.51-5.68,3-8.25.39-.67.89-1.36,1.5-1.82,1.17-.88,1.99-2.01,2.63-3.27.72-1.42,1.83-2.42,3.16-3.22.61-.36,1.2-.75,1.8-1.11,1.44-.86,2.2-2.22,2.89-3.69,2.2-4.67,7.04-7.56,12.19-7.04,3.36.34,5.43,2.43,6.68,5.44.83,2.01,1.08,4.13,1.25,6.28.37,4.72.8,9.44,1.18,14.16.43,5.31.83,10.62.56,15.95-.11,2.12-.79,4.07-1.73,5.96-3.55,7.17-7.5,14.11-11.83,20.85-1.82,2.83-4.46,4.56-7.42,5.89-5.49,2.47-11,4.9-16.51,7.35-5.32,2.36-10.68,4.65-15.65,7.72-2.59,1.6-4.99,3.52-7.49,5.28-.84.59-1.68,1.19-2.56,1.72-1.73,1.06-3.4.67-4.93-.41-1.71-1.2-3.29-2.58-5.04-3.72-2.71-1.76-5.39-3.6-8.28-5.02-5.88-2.88-11.88-5.5-17.84-8.23-3.98-1.82-7.96-3.63-11.93-5.48-2.58-1.2-4.62-3.02-6.07-5.47-2.7-4.55-5.44-9.07-8.03-13.67-1.58-2.81-3.04-5.71-4.32-8.67-.64-1.48-.97-3.17-1.05-4.79-.13-2.64-.02-5.3.12-7.94.15-2.91.42-5.81.66-8.71.24-2.96.52-5.92.76-8.88.17-2.05.28-4.11.5-6.15.24-2.25.9-4.38,2.24-6.24,2.03-2.81,4.87-3.62,8.18-3.16,3.62.51,6.4,2.38,8.52,5.3.43.59.82,1.24,1.07,1.92.67,1.82,1.92,3.09,3.59,3.96,2.14,1.11,3.68,2.74,4.81,4.87.42.8,1.16,1.48,1.87,2.06,1.39,1.14,2.18,2.65,2.69,4.27,1.11,3.49,2.05,7.04,3.05,10.56.59,2.06,1.11,4.14,1.76,6.18.45,1.4,1.42,2.39,2.87,2.89,4.54,1.56,8.91,3.5,12.99,6.04,3.58,2.23,6.72,4.95,9.27,8.33.1.14.21.26.35.44ZM18.45,25.59c-.22.81-.51,1.47-.58,2.15-.28,3.19-.53,6.38-.74,9.58-.29,4.49-.56,8.98-.8,13.47-.15,2.88-.16,5.74,1.11,8.47,2.35,5.06,4.53,10.2,7.79,14.78,1.83,2.58,3.55,5.2,6.5,6.69,3.72,1.88,7.36,3.95,11.14,5.71,6.44,3,13.01,5.73,19.43,8.78,3.04,1.44,5.89,3.29,8.74,5.1,1.28.81,2.31,2,3.51,2.94,1.1.86,1.32.85,2.36-.07,2.34-2.06,4.67-4.17,7.49-5.55,5.59-2.73,11.22-5.38,16.88-7.97,6.12-2.8,12.36-5.35,18.16-8.81,1.64-.98,3.23-2.05,4.42-3.6,3.86-5.02,6.8-10.57,9.35-16.34.53-1.21,1.05-2.43,1.41-3.7.88-3.13.38-6.32.24-9.48-.19-4.11-.47-8.22-.72-12.32-.14-2.26-.25-4.52-.43-6.78-.06-.75-.3-1.5-.49-2.24-.17-.67-.61-.85-1.05-.28-.57.73-1.29,1.49-1.46,2.34-.55,2.7-.87,5.45-1.3,8.17-.44,2.76-.91,5.51-1.37,8.26-.51,3.01-.94,6.04-1.57,9.03-.53,2.49-1.11,4.99-1.99,7.37-1.31,3.54-3.89,6.17-7.07,8.11-2.78,1.69-5.66,3.24-8.59,4.66-1.59.77-3.37,1.18-5.08,1.71-.69.21-1.13-.02-1.33-.84-.5-2.04.13-3.71,1.84-4.74,2.53-1.53,5.21-2.83,7.83-4.21,2.89-1.53,5.66-3.17,6.92-6.45.7-1.81,1.21-3.62.61-5.58-.19-.62-.45-.92-1.14-.6-1.33.61-2.72,1.11-4.03,1.77-3.44,1.73-6.82,3.57-10.27,5.28-4.45,2.21-8.95,4.29-13.4,6.51-2.45,1.22-4.72,2.76-6.7,4.69-3.36,3.26-4.88,7.49-6.07,11.85-.73,2.69-1.29,5.43-1.93,8.15-.07.31-.23.61-.41,1.09-.14-.32-.2-.41-.22-.52-1-3.99-1.88-8.01-3.03-11.95-1.11-3.82-3.17-7.12-6.28-9.72-3.29-2.75-7.16-4.47-10.97-6.32-4.23-2.05-8.45-4.13-12.66-6.22-3.36-1.66-6.71-3.35-10.18-5.09-.29.7-.59,1.13-.65,1.6-.36,3.07.6,5.75,2.65,8.02,1.8,1.98,4.2,3.07,6.54,4.25,2.09,1.06,4.19,2.13,6.18,3.36,1.95,1.21,2.57,3.22,1.88,5.11-.18.49-.45.68-.92.57-1-.22-2.07-.3-2.99-.71-2.89-1.31-5.79-2.62-8.54-4.17-2.01-1.13-3.94-2.48-5.67-4.01-3.24-2.88-4.69-6.77-5.49-10.91-.62-3.2-1.14-6.42-1.66-9.64-.9-5.66-1.76-11.33-2.66-16.98-.25-1.53-.94-2.82-2.52-3.76ZM126.09,25.9c-.08-.37-.17-.78-.26-1.19-.37.24-.76.46-1.09.74-.2.16-.32.42-.45.65-1.61,2.62-2.01,5.61-2.5,8.56-.48,2.87-.87,5.75-1.22,8.63-.08.69.07,1.46.31,2.12.11.31.67.55,1.06.61.21.03.59-.34.71-.6.32-.72.66-1.46.79-2.23.52-3.06.97-6.14,1.44-9.21.41-2.67.81-5.34,1.22-8.08ZM30.89,44.04c-.04-.38-.07-.76-.13-1.14-.26-1.83-.47-3.67-.79-5.49-.54-2.97-1.03-5.96-1.78-8.88-.32-1.26-1.23-2.37-1.92-3.51-.11-.18-.49-.19-.75-.29-.07.21-.22.43-.19.63.33,2.5.68,5,1.02,7.51.33,2.36.59,4.72,1.02,7.06.34,1.84.83,3.65,1.34,5.45.22.79.83.97,1.41.41.44-.42.83-1.72.77-1.76ZM36.89,46.71c.08-.02.16-.03.24-.05,0-.28.02-.56,0-.84-.13-1.5-.2-3-.41-4.48-.37-2.74-.9-5.45-2.29-7.9-.12-.21-.41-.32-.63-.47-.06.24-.19.49-.16.72.19,1.72.43,3.44.61,5.17.29,2.83,1.48,5.33,2.64,7.85ZM117.66,32.95c-1.94.56-3.41,9.01-3.32,13.35,0,.12.16.17.23.08,1.48-1.82,3.79-11.57,3.09-13.43ZM110.61,40.08c-.12-.02-.24-.04-.35-.07-.34.49-.75.96-1.02,1.49-1.29,2.58-1.48,5.4-1.58,8.21-.01.34.12.68.23,1.02.05.15.24.2.36.1.32-.29.65-.58.95-.89.12-.13.13-.38.18-.56.12-.41.24-.81.32-1.23.4-2.24.76-4.49,1.05-6.75.05-.43-.09-.88-.14-1.32ZM40.74,39.87c-.04.46-.14.81-.09,1.14.45,2.89.87,5.78,1.43,8.65.1.5.56.92,1.01,1.45.1.12.31.08.34-.08.65-3.06-.3-9.76-2.69-11.16Z"/>
      <path class="cls-4" d="M100.09,26.31c0,.32,0,.63,0,.95,0,8.04,0,16.08,0,24.12,0,1.13-.08,1.22-1.2,1.22-15.49,0-30.98,0-46.47,0-1.12,0-1.18-.06-1.18-1.21,0-8.13-.04-25.45-.04-25.45,0,0-1.86,1.23-2.66,1.81-.46.34-.81.38-1.21-.09-1.44-1.67-2.89-3.33-4.36-4.98-.48-.53-.41-.88.18-1.27C47.59,18.48,73.08,1.46,75.24.08c.22-.14.71-.09.94.06,4.89,3.22,31.09,20.67,32.1,21.32.53.34.55.67.13,1.14-1.46,1.65-2.91,3.32-4.34,4.99-.4.47-.77.53-1.29.16-.8-.57-1.64-1.09-2.46-1.63-.08.06-.16.11-.24.17ZM94.89,47.83c.03-.25.07-.39.07-.53,0-7.89.01-15.78-.02-23.68,0-.31-.26-.73-.52-.91-6.03-4.04-12.09-8.04-18.13-12.07-.51-.34-.82-.32-1.31,0-6.01,4.02-12.03,8.01-18.03,12.04-.3.2-.55.71-.56,1.07-.03,7.72-.01,15.43-.03,23.15,0,.75.26.94.98.93,2.89-.04,5.77-.04,8.66,0,.77.01.94-.26.94-.97-.03-3.18,0-6.36-.02-9.54,0-.83.27-1.12,1.14-1.11,4.56.04,9.13.02,13.69.03.82,0,1.98-.24,2.36.18.44.49.23,1.6.23,2.43.02,2.71,0,5.42.01,8.13,0,.39-.11.86.57.85,3.29-.01,6.59,0,9.97,0Z"/>
    </g>
  </g>
</svg>