<?xml version="1.0" encoding="UTF-8"?>
<svg id="Capa_2" data-name="Capa 2" xmlns="http://www.w3.org/2000/svg" viewBox="0 0 168 120">
  <defs>
    <style>
      .cls-1 {
        fill: #5c213c;
      }

      .cls-2 {
        fill: #fefefe;
      }

      .cls-3 {
        fill: #a88e64;
      }
    </style>
  </defs>
  <g id="Capa_1-2" data-name="Capa 1">
    <g id="mQUywc.tif">
      <g>
        <path class="cls-2" d="M3.98,120H0V0h168v91.24c-20.28-4.17-32.36,17.78-12.92,28.76h-11.93c.73-11.02-13.88-1.08-15.71-12.65-2.21-13.94,16.35-5.83,16.7-16.11-20.52-4.41-32.76,16.82-13.91,28.76h-21.87c.58-3.03-.78-21.05,0-21.82.3-.3,5.7.5,7.94-.51,1.91-.85,5.4-6.43,2.5-6.43h-26.84c-2.87,0,.19,4.75,2.1,5.84,2.82,1.6,8.04.8,8.34,1.1,1.29,1.25-2.59,19.23,2.98,21.82h-21.87c22.54-7.61,5.51-39.11-12.42-25.78-9.54,7.1-6.55,20.71,3.47,25.78h-29.82c5.95-5.05.53-13.43,4.95-19.36,4.35-5.86,14.8-.32,14.93-9.39-22.08-2.84-24.64,10.17-22.86,28.76h-2.98c.52-10.92,2.01-28.33-13.41-28.85-16.45-.55-16.35,16.99-15.42,28.85h-1.99c-1.07-6.6,3.44-27.19-5.46-28.78-2.01-.36-1.33.25-1.5,1.48-.59,4.11-.6,17.74-.06,21.89.36,2.75,1.61,3.4,3.04,5.4ZM79.28,1.25c-27.32,3.52-42.73,37.76-28.01,61.14,2.41,3.82,5.04,8.1,10.36,5.53,7.29-3.52-1.35-12.52-2.71-17.14-4.43-15.15,3.52-31.63,19.16-35.86,2.5-.68,8.4-2.03,10.44-.61,2.62,1.81-.57,20.77,1.45,25.33s9.36,4.31,10.96-.92c1.04-3.41.93-27.47-.3-30.54-2.52-6.25-15.49-7.69-21.36-6.94ZM81.51,68.43v-23.31c0-4.44-9.49-7.92-12.41-1.47-.93,2.06-.96,26.08-.3,29.03,1.16,5.18,8.59,7.97,13.32,8.53,27.24,3.2,48.19-24.65,41.44-50.27-1.38-5.24-7.47-20.61-14.59-15.96-7.11,4.64,1.78,13.2,2.92,18.68,4.12,19.85-10.05,37.55-30.38,34.77ZM64.61,103.15c-3.11.64-15.2-2.19-13.78,3.31,1.3,5.01,14.65,3.15,13.78-3.31ZM144.14,103.15c-3.11.64-15.2-2.19-13.78,3.31,1.3,5.01,14.65,3.15,13.78-3.31Z"/>
        <path class="cls-1" d="M83.5,120h-8.95c-10.02-5.07-13.01-18.68-3.47-25.78,17.92-13.34,34.96,18.16,12.42,25.78ZM78.27,97.36c-7.14,1.48-9.52,12.92-2.47,15.94,14.58,6.24,16.05-18.75,2.47-15.94Z"/>
        <path class="cls-1" d="M38.77,120h-2.98c-6.26-5.07,1.16-21.99-10.49-22.78-13.67-.93-4.22,17.68-12.37,22.78h-2.98c-.94-11.86-1.03-29.4,15.42-28.85,15.42.52,13.93,17.93,13.41,28.85Z"/>
        <path class="cls-2" d="M35.79,120H12.92c8.15-5.11-1.3-23.71,12.37-22.78,11.65.79,4.24,17.71,10.49,22.78Z"/>
        <path class="cls-1" d="M130.22,120c-18.85-11.94-6.61-33.16,13.91-28.76-.35,10.27-18.9,2.16-16.7,16.11,1.83,11.57,16.44,1.63,15.71,12.65h-12.92Z"/>
        <path class="cls-1" d="M168,91.24v3.97c-5.58,3.72-16.15.35-15.99,10.42.19,12.07,11,5.29,15.99,11.4v2.98h-12.92c-19.43-10.98-7.36-32.93,12.92-28.76Z"/>
        <path class="cls-1" d="M105.37,120c-5.56-2.6-1.68-20.57-2.98-21.82-.31-.3-5.52.5-8.34-1.1-1.91-1.09-4.97-5.84-2.1-5.84h26.84c2.9,0-.59,5.58-2.5,6.43-2.25,1.01-7.64.2-7.94.51-.77.77.58,18.79,0,21.82h-2.98Z"/>
        <path class="cls-2" d="M168,117.02c-4.99-6.11-15.8.67-15.99-11.4-.16-10.07,10.41-6.69,15.99-10.42v21.82Z"/>
        <path class="cls-1" d="M41.75,120c-1.78-18.59.78-31.6,22.86-28.76-.13,9.07-10.58,3.53-14.93,9.39-4.41,5.94,1,14.31-4.95,19.36h-2.98Z"/>
        <path class="cls-1" d="M7.95,120h-3.98c-1.42-2-2.68-2.65-3.04-5.4-.55-4.15-.54-17.78.06-21.89.18-1.24-.5-1.84,1.5-1.48,8.9,1.59,4.39,22.18,5.46,28.78Z"/>
        <path class="cls-3" d="M81.51,68.43c20.33,2.78,34.5-14.92,30.38-34.77-1.14-5.48-10.03-14.04-2.92-18.68,7.12-4.65,13.21,10.73,14.59,15.96,6.75,25.62-14.2,53.46-41.44,50.27-4.72-.55-12.16-3.35-13.32-8.53-.66-2.95-.63-26.97.3-29.03,2.92-6.45,12.41-2.97,12.41,1.47v23.31Z"/>
        <path class="cls-1" d="M79.28,1.25c5.87-.76,18.84.69,21.36,6.94,1.24,3.07,1.35,27.12.3,30.54-1.6,5.23-9.01,5.32-10.96.92s1.17-23.51-1.45-25.33c-2.05-1.41-7.95-.06-10.44.61-15.64,4.23-23.6,20.7-19.16,35.86,1.35,4.62,10,13.62,2.71,17.14-5.32,2.57-7.96-1.71-10.36-5.53-14.72-23.39.69-57.62,28.01-61.14Z"/>
        <path class="cls-1" d="M64.61,103.15c.87,6.46-12.48,8.32-13.78,3.31-1.42-5.5,10.67-2.67,13.78-3.31Z"/>
        <path class="cls-1" d="M144.14,103.15c.87,6.46-12.48,8.32-13.78,3.31-1.42-5.5,10.67-2.67,13.78-3.31Z"/>
        <path class="cls-2" d="M78.27,97.36c13.58-2.81,12.11,22.17-2.47,15.94-7.05-3.01-4.67-14.46,2.47-15.94Z"/>
      </g>
    </g>
  </g>
</svg>