<?xml version="1.0" encoding="UTF-8"?>
<svg id="Capa_2" data-name="Capa 2" xmlns="http://www.w3.org/2000/svg" viewBox="0 0 175.75 55.29">
  <defs>
    <style>
      .cls-1 {
        fill: #56a434;
        fill-rule: evenodd;
      }
    </style>
  </defs>
  <g id="Capa_1-2" data-name="Capa 1">
    <path class="cls-1" d="M111.2,33.25c-1.31.69-1.79,1.31-1.79,2.13,0,.14.07.41.07.62.07.14-.27.27-.27.41.07.21.48.41.55.48.27.69.96,1.1,1.99,1.1s3.64-1.1,6.6-2.61c3.02-1.51,2.54-.55,3.02.27.48.89,1.03,1.1,2.47.69s.89.41.48,1.03c-.41.69-.21,1.1.96,1.92,1.17.89,1.31-.48,1.51-1.44.21-.96,2.89-3.64,3.37-4.4.48-.76,2.13-1.03,2.68-1.65.55-.55.89-1.58.27-2.54-.55-.96-2.06.55-3.02,1.44-.96.82-1.17.07-1.24-.76-.14-.89-.41-3.02-1.1-4.74-.69-1.72.96-1.44,1.58-1.24.55.21,2.06.27,2.95.48.82.21,4.12.41,5.7.55,1.65.21,3.16.82,5.22.82s3.23.62,4.6.76c1.31.07,3.71-.21,4.74,0,1.1.14,1.44.76,2.89.76s7.97.21,8.52.27c.62.07.82-.41,1.37-.27.55.07.96.76,1.44.82.48.14.48-.14,1.17-.27.62-.07,3.02.41,3.98.69.96.27,1.17,1.03,1.92,1.03s1.37-.62,1.72-1.72c.41-1.03-.55-1.24-1.79-1.31-1.24-.14-5.7-.21-7.97-.27-2.34-.14-5.29-.48-7.21-.48s-5.7-.41-7.83-.69c-2.13-.27-5.63-.41-6.73-.41-1.03,0-3.16.27-3.98-.27-.89-.55-4.6-1.03-5.7-1.03-1.03,0-3.23-.62-4.74-.69-1.58-.07-2.2-1.17-4.81-1.17-2.2,0-.55,2.13.89,2.47,1.37.41,1.37,3.02,1.86,5.57.48,2.61-.62,3.64-1.24,4.26-.55.55-1.58,1.72-2.47,1.1-.89-.55-.27-1.24,1.17-3.23,1.44-1.99-.96-2.4-1.72-1.51-.82.82-1.65,1.99-2.89,2.75-1.24.76-2.13,1.86-4.6,2.61-2.47.69-2.06-.62.27-1.99,1.31-.82.76-1.92-.96-1.86-1.79.07-1.92.48-3.92,1.51h0Z"/>
    <path class="cls-1" d="M155.86,46.24c.07-.14.27-.89.34-1.17.21.27.48.89.69,1.1.21,0,.76-.14,1.03-.14.07,0,.07.07,0,.14-.21.21-.62.41-.76.55.07.21.34.82.48,1.03,0,0,0,.07-.14,0-.34-.14-.82-.34-1.1-.48-.21.14-.82.55-.96.62q-.07.14-.07-.07c.14-.34.21-.62.27-.89-.27-.14-.69-.41-.82-.41-.07-.07-.14-.14,0-.14.07,0,1.03-.14,1.03-.14h0Z"/>
    <path class="cls-1" d="M131.06,9.41c.07-.21.27-.89.41-1.1.14.21.34.96.48,1.1.21,0,.82.07,1.1.07.07,0,.14.07.07.07-.21.14-.69.48-.89.62.07.21.34.96.41,1.17.07.07.14.14,0,.14-.34-.21-.96-.62-1.17-.82-.21.21-.82.55-.89.62q-.14.07-.14-.07c.14-.27.21-.69.34-.96-.21-.14-.96-.69-1.03-.76-.07-.07-.14-.14-.07-.14.14,0,1.37.07,1.37.07h0Z"/>
    <path class="cls-1" d="M150.23,39.37c.14.27.34.96.34,1.17.27,0,1.1.14,1.37.21q.07,0,0,.07c-.27.14-.89.48-1.1.62.07.14.34,1.17.34,1.37.07,0,0,.07-.07,0-.27-.27-.82-.76-1.1-.96-.21.21-1.17.69-1.31.82q-.14,0-.07-.07c.14-.34.48-1.17.62-1.37-.14-.14-.82-.76-.89-.82-.07-.07-.07-.14,0-.07.21,0,1.31.07,1.31.07.07-.07.41-.82.55-1.03,0,0,0-.07,0,0h0Z"/>
    <path class="cls-1" d="M116.49,53.11c.07-.14.41-1.03.48-1.24.07.21.34,1.03.41,1.24h.96q.07,0,0,.07c-.14.14-.62.48-.76.62.07.21.34.89.34,1.1q.07.07,0,.07c-.27-.14-.76-.48-.96-.62-.14.07-.89.76-1.1.89q-.07.07-.07,0c.07-.27.34-1.17.48-1.37-.14-.07-.82-.55-.89-.62-.07,0-.07-.07,0-.07s1.1-.07,1.1-.07h0Z"/>
    <path class="cls-1" d="M169.95,1.44c.07-.14.21-1.03.27-1.44.07.07.55,1.1.69,1.31.27,0,1.1-.14,1.37-.14q.07,0,0,.07c-.21.21-.76.69-.96.89,0,.07.55,1.24.62,1.37.07.07,0,.07-.07,0-.34-.21-1.03-.62-1.31-.76-.21.21-.82.76-.89.82-.07.07-.14.07-.07,0,0-.27.14-.96.21-1.24-.21-.14-.96-.55-1.03-.62q-.14-.07,0-.07c.21-.07,1.17-.21,1.17-.21h0Z"/>
    <path class="cls-1" d="M174.21,4.88c0,.34.07.89.07,1.1.21.07,1.17.34,1.44.41.07,0,0,.07,0,.07-.27.07-1.17.41-1.37.48v1.24q0,.14-.07.07c-.14-.21-.55-.82-.76-1.1-.21.07-.89.27-.96.34-.07,0-.14,0-.07-.07.14-.27.41-.69.55-.89-.14-.21-.55-.82-.55-.96q-.07-.07,0-.07c.14,0,1.03.27,1.03.27.07-.14.48-.76.62-.96,0,0,.07-.07.07.07h0Z"/>
    <path class="cls-1" d="M35.35,34.63c0-1.03-1.58-2.68-2.95-3.5-1.17-.69-1.1-.62-1.44-.27.27.55.55,1.17.76,1.79.14-.07.27-.14.41-.14,1.24,0,1.65,1.17,1.65,1.99,0,.55-.41,1.24-1.1,1.79.07.41.14.89.14,1.37,1.31-.89,2.54-2.27,2.54-3.02h0Z"/>
    <path class="cls-1" d="M30.54,37.1c-1.92.21-1.37.96-1.92.96-.62,0-2.47-.21-1.37-1.37.96-1.03,3.02-3.57,4.47-4.05-.21-.62-.48-1.24-.76-1.79-.07.07-.14.14-.21.21-.55.62-1.03,1.31-1.72,1.58-.62.27-3.44,1.1-5.08,1.03-1.65-.07-2.54-.34-1.37-1.24,1.17-.82,1.44-2.34-.41-2.27-1.92.07-4.81,1.79-5.29,2.47-.41.76.14,1.72-1.44,1.99-1.58.21-3.16.69-3.98.48-.89-.21-1.72-.14-1.44-1.51.27-1.37,1.17-1.51,1.17-3.23.82-.69,3.16-3.16,3.92-4.05,1.58-.41,7.15-1.44,9.76-3.09.27-.14.55-.27.76-.48-.21-.27-.41-.55-.69-.89-.41.34-.82.62-1.17.82-1.86.89-3.37,1.44-4.26,1.51-.89.07-2.27.69-1.44-.89.89-1.58,1.24-1.51,1.85-2.27.41-.48,1.24-1.51,2.34-2.61-.27-.34-.55-.76-.82-1.1-1.72,1.79-6.32,6.39-6.94,7.01-1.1-.48-3.09-.69-4.05-2.27-.89-1.44-1.37-2.06-2.13-1.58-.48.34-.27,1.1.07,1.99.27.76,1.17,2.4,3.3,3.09,2.13.62,1.03.89.55,1.37-.41.41-5.02,4.67-7.08,6.32-2.13,1.65-5.98,3.44-4.95,5.15.41.76,1.85-.55,2.27-.69.41-.21.96-.14,1.31-.48.34-.34,1.37-1.79,2.34-1.86,1.03-.07,1.44,1.17,2.47,1.37,1.37.21,7.21-.55,8.24-1.44.69.14,2.06.41,2.82.34.82-.07,4.33-.41,5.15-.69.89-.27,1.31.14,1.03.55-.27.41-1.65,2.34-.41,3.44,1.24,1.17,5.15,0,6.6-.76.27-.14.55-.34.82-.55,0-.48-.07-.96-.14-1.37-.55.41-1.31.76-2.13.82h0Z"/>
    <path class="cls-1" d="M27.72,15.25c1.79-.07,1.58,1.72,1.1,2.61-.41.69-2.2,2.75-3.92,3.98.27.34.48.62.69.89,3.23-2.2,6.87-6.18,4.26-8.66-2.06-1.86-6.94,1.58-7.9,2.68-.14.14-.34.34-.55.55.27.34.55.76.82,1.1,1.58-1.51,3.64-3.09,5.5-3.16h0Z"/>
    <path class="cls-1" d="M54.79,37.51c-.69.21-1.31.34-1.72.34-1.58-.14-2.95-2.34-1.85-4.47,1.58,0,2.61-.07,3.5-.07h1.03c.14-.48.27-.96.48-1.37-1.31-.07-2.68-.07-3.37,0-.69.07-.82-.62-.48-1.17.34-.55,1.99-2.75,2.68-3.23.96,0,1.65.14,2.27.21.27.07.48.07.76.07.41-.76.89-1.51,1.37-2.27-4.53-.34-.21-1.86,1.65-3.09.55-.41,1.17-.89,1.72-1.24.69-.76,1.44-1.51,2.2-2.27-2.13-.07-4.05,1.37-5.29,2.2-1.24.76-4.19,2.61-5.08,3.57-.96-.07-2.89,0-3.37.27-.41.34-.55,1.51-.07,1.51.55,0,.34.82-.14,1.1-.41.27-1.51,1.79-2.34,2.61-.89.76-2.68,3.3-2.89,3.98-.21.76-.14,2.54.96,2.68,1.03.14,1.31-1.31,2.54-1.1.96.21.34,3.3,3.85,3.71.41,0,.89,0,1.37-.07v-.34c.07-.55.14-1.1.21-1.58h0Z"/>
    <path class="cls-1" d="M107.77,36.62c-.48.07-.62-.76-.55-1.37.07-.62.89-1.65-.96-1.99-1.85-.41-3.78,2.4-4.6,2.13-.89-.27.48-2.54-.62-2.61-1.03-.07-3.02,1.1-4.05,1.86-1.1.69-4.47,2.13-5.36,1.92-.82-.21-.69-1.31-.69-1.65,0-.41.21.27.27-.89.07-1.17-1.17-1.37-1.79-1.51-.48-.07-1.03-.62-1.24.27-.14.55-.21.69-.48.96-.27.27-1.79,1.44-2.82,2.13-1.03.76-3.71,2.06-4.88,1.72-1.17-.27-1.58-1.17-.82-2.82.82-1.65-.82-1.85-2.47,0-.69.69-2.61,1.17-4.19,1.92-1.1.48-2.13,0-.76-1.1.41-.34,1.37-1.44,1.79-1.92.34-.48.41-1.37-.41-1.65-.76-.27-.89,0-1.37.41-.55.41-1.17.34-1.72.34-.48,0-4.26.07-5.22.07-.89,0-.82-.82-.82-1.1,0-.34.62-1.17,0-2.95-.69-1.79.55-1.65,1.24-2.13.76-.41,2.4-1.03,2.54-3.3.14-2.2-1.1-4.26-2.75-4.33v-.07c-.76.76-1.51,1.51-2.2,2.27.41-.27.76-.41,1.1-.41.62,0,1.24.21,1.17,2.47-.07,2.34-3.23,2.34-4.6,2.34-.34,0-.76-.07-1.03-.07-.48.76-.96,1.51-1.37,2.27,1.03.07,2.06,0,2.75.07.76.55,1.79,1.31,1.65,2.27-.21.89-.76,1.92-1.17,2.4-1.03.07-3.5-.55-4.88-.62h-.21c-.21.41-.34.89-.48,1.37,1.24.07,2.75.21,3.37.34,1.37.27,1.03.21.14,1.24-.76.76-2.82,1.99-4.47,2.61-.07.48-.14,1.03-.21,1.58v.34c1.51-.27,3.16-1.1,4.12-1.65,1.31-.82,4.05-2.75,4.81-3.98,1.58-.14,3.37.07,4.33.14.96.07,2.82-.34,2.82.27,0,.69-2.89,3.02-2.89,3.3,0,.34,0,1.17,1.44,1.24,2.2.14,4.88-2.54,6.46-2.47,2.27.07-1.31,2.54,4.26,2.54s7.76-4.6,8.93-4.53c2.13.14-1.37,3.23,1.86,3.44,3.64.14,7.56-3.37,8.31-3.23.82.21.14,1.37-.14,1.99-.27.55-.14,1.44.89,1.51.96.07,4.33-3.16,5.02-3.09.62.07.41.89.41,1.86s.76.96,1.31,1.17c.55.21.69-.21,1.24-.55.48-.27.41-.82,0-.76h0Z"/>
  </g>
</svg>